<?xml version="1.0" encoding="UTF-8"?>
<svg xmlns="http://www.w3.org/2000/svg" width="4096" height="4096" viewBox="0 0 4096 4096"
     role="img" aria-labelledby="title description" data-atlas-asset="original-regional-composition-v1">
  <title id="title">Atlas Original Regional Composition V1</title>
  <desc id="description">Repository-owned editable construction draft made from ten inset region masses, composition connectors and confirmed Atlas anchors. Not a final coastline, terrain map, road map, or calibrated production base.</desc>
  <metadata>{&quot;strategy&quot;:&quot;fully-original-authored-visual-base&quot;,&quot;stage&quot;:&quot;original-regional-composition&quot;,&quot;generatedAt&quot;:&quot;2026-07-23T17:00:00Z&quot;,&quot;sourceSkeleton&quot;:&quot;data/geospatial/geospatial-original-authored-base-skeleton.json&quot;,&quot;thirdPartyRasterUsed&quot;:false,&quot;thirdPartyVectorUsed&quot;:false,&quot;finalBaseApproved&quot;:false}</metadata>
  <defs>
    <linearGradient id="oceanGradient" x1="0" y1="0" x2="1" y2="1">
      <stop offset="0" stop-color="#0b1013"/>
      <stop offset="0.55" stop-color="#131c20"/>
      <stop offset="1" stop-color="#070b0d"/>
    </linearGradient>
    <linearGradient id="landGradient" x1="0" y1="0" x2="0.8" y2="1">
      <stop offset="0" stop-color="#eadfc4"/>
      <stop offset="0.58" stop-color="#d4c39d"/>
      <stop offset="1" stop-color="#b9a47b"/>
    </linearGradient>
    <pattern id="oceanLines" width="92" height="92" patternUnits="userSpaceOnUse" patternTransform="rotate(-12)">
      <path d="M -20 28 Q 20 12 60 28 T 140 28" fill="none" stroke="#29373d" stroke-width="3" stroke-opacity="0.42"/>
      <path d="M -20 68 Q 20 52 60 68 T 140 68" fill="none" stroke="#29373d" stroke-width="2" stroke-opacity="0.25"/>
    </pattern>
    <filter id="paperGrain" x="-10%" y="-10%" width="120%" height="120%">
      <feTurbulence type="fractalNoise" baseFrequency="0.008 0.03" numOctaves="2" seed="47" result="noise"/>
      <feColorMatrix in="noise" values="0.25 0 0 0 0.62  0 0.22 0 0 0.55  0 0 0.18 0 0.45  0 0 0 0.16 0" result="grain"/>
      <feBlend in="SourceGraphic" in2="grain" mode="multiply"/>
    </filter>
    <mask id="landMask" maskUnits="userSpaceOnUse" x="0" y="0" width="4096" height="4096">
      <rect width="4096" height="4096" fill="black"/>
      <path d="M 3000.49 2737.78 L 3147.69 1943.22" stroke="white" stroke-width="118" stroke-linecap="round" stroke-opacity="1"/><path d="M 3000.49 2737.78 L 1873.65 3314.89" stroke="white" stroke-width="118" stroke-linecap="round" stroke-opacity="1"/><path d="M 3000.49 2737.78 L 1811.94 2223.18" stroke="white" stroke-width="118" stroke-linecap="round" stroke-opacity="1"/><path d="M 3147.69 1943.22 L 1811.94 2223.18" stroke="white" stroke-width="118" stroke-linecap="round" stroke-opacity="1"/><path d="M 3147.69 1943.22 L 2751.08 1383.49" stroke="white" stroke-width="118" stroke-linecap="round" stroke-opacity="1"/><path d="M 3147.69 1943.22 L 2520.52 643.89" stroke="white" stroke-width="118" stroke-linecap="round" stroke-opacity="1"/><path d="M 1873.65 3314.89 L 1811.94 2223.18" stroke="white" stroke-width="118" stroke-linecap="round" stroke-opacity="1"/><path d="M 1873.65 3314.89 L 737.03 2427.14" stroke="white" stroke-width="118" stroke-linecap="round" stroke-opacity="1"/><path d="M 1675.36 1404.21 L 1811.94 2223.18" stroke="white" stroke-width="118" stroke-linecap="round" stroke-opacity="1"/><path d="M 1675.36 1404.21 L 889.68 1639.25" stroke="white" stroke-width="118" stroke-linecap="round" stroke-opacity="1"/><path d="M 1675.36 1404.21 L 737.03 2427.14" stroke="white" stroke-width="118" stroke-linecap="round" stroke-opacity="1"/><path d="M 1675.36 1404.21 L 2751.08 1383.49" stroke="white" stroke-width="118" stroke-linecap="round" stroke-opacity="1"/><path d="M 1675.36 1404.21 L 2520.52 643.89" stroke="white" stroke-width="118" stroke-linecap="round" stroke-opacity="1"/><path d="M 1675.36 1404.21 L 707.75 903.74" stroke="white" stroke-width="118" stroke-linecap="round" stroke-opacity="1"/><path d="M 1811.94 2223.18 L 889.68 1639.25" stroke="white" stroke-width="118" stroke-linecap="round" stroke-opacity="1"/><path d="M 1811.94 2223.18 L 737.03 2427.14" stroke="white" stroke-width="118" stroke-linecap="round" stroke-opacity="1"/><path d="M 889.68 1639.25 L 737.03 2427.14" stroke="white" stroke-width="118" stroke-linecap="round" stroke-opacity="1"/><path d="M 889.68 1639.25 L 707.75 903.74" stroke="white" stroke-width="118" stroke-linecap="round" stroke-opacity="1"/><path d="M 737.03 2427.14 L 707.75 903.74" stroke="white" stroke-width="118" stroke-linecap="round" stroke-opacity="1"/><path d="M 2751.08 1383.49 L 2520.52 643.89" stroke="white" stroke-width="118" stroke-linecap="round" stroke-opacity="1"/>
      <path d="M 2417.43 3122.12 Q 1888.44 2623.01 2090.48 2379.85 Q 2292.52 2136.70 2329.24 2110.10 Q 2365.96 2083.50 2437.90 2081.17 Q 2509.85 2078.85 2629.58 2098.15 Q 2749.31 2117.45 3067.40 2183.63 Q 3385.50 2249.82 3473.65 2343.51 Q 3561.80 2437.21 3676.48 2600.49 Q 3791.15 2763.77 3822.36 2953.19 Q 3853.57 3142.60 3809.61 3266.10 Q 3765.65 3389.59 3356.03 3505.41 Q 2946.41 3621.23 2417.43 3122.12 Z" fill="white"/><path d="M 2877.79 1905.90 Q 2848.92 1830.92 2852.68 1810.45 Q 2856.43 1789.97 2871.92 1757.83 Q 2887.40 1725.68 2903.92 1698.30 Q 2920.44 1670.93 2921.50 1669.74 Q 2922.56 1668.56 3046.49 1607.92 Q 3170.42 1547.27 3236.05 1593.31 Q 3301.67 1639.34 3395.79 1827.63 Q 3489.90 2015.93 3476.84 2031.83 Q 3463.77 2047.72 3399.99 2094.91 Q 3336.21 2142.10 3334.51 2143.24 Q 3332.80 2144.39 3254.60 2150.85 Q 3176.40 2157.31 3118.10 2143.65 Q 3059.80 2129.98 3008.33 2095.83 Q 2956.87 2061.69 2931.76 2021.29 Q 2906.66 1980.89 2877.79 1905.90 Z" fill="white"/><path d="M 1055.68 3129.50 Q 1051.96 3116.64 1054.00 2999.20 Q 1056.04 2881.76 1075.50 2777.55 Q 1094.95 2673.35 1556.76 2666.10 Q 2018.57 2658.86 2019.12 2659.24 Q 2019.68 2659.62 2046.33 2678.52 Q 2072.97 2697.42 2315.77 3005.88 Q 2558.58 3314.34 2621.74 3493.25 Q 2684.91 3672.16 2421.38 3766.79 Q 2157.86 3861.42 1954.00 3869.26 Q 1750.13 3877.11 1739.50 3872.39 Q 1728.86 3867.66 1394.13 3505.01 Q 1059.39 3142.36 1055.68 3129.50 Z" fill="white"/><path d="M 1099.35 3044.13 Q 348.77 2745.82 789.34 1859.55 Q 1229.92 973.28 1369.84 940.44 Q 1509.77 907.60 1710.95 960.56 Q 1912.13 1013.51 1995.41 1044.02 Q 2078.68 1074.53 2801.84 1610.39 Q 3525.00 2146.26 3661.32 2791.22 Q 3797.64 3436.18 2823.79 3389.31 Q 1849.94 3342.44 1099.35 3044.13 Z" fill="white"/><path d="M 1358.03 2551.92 Q 1279.95 2432.36 1354.50 2202.46 Q 1429.04 1972.56 1541.78 1922.63 Q 1654.51 1872.69 1697.74 1855.48 Q 1740.96 1838.28 2186.49 1808.93 Q 2632.02 1779.59 2731.89 1849.01 Q 2831.77 1918.43 2840.87 1927.16 Q 2849.97 1935.90 2853.79 1942.60 Q 2857.61 1949.29 2385.69 2318.56 Q 1913.78 2687.82 1713.48 2716.90 Q 1513.18 2745.98 1474.64 2708.73 Q 1436.11 2671.49 1358.03 2551.92 Z" fill="white"/><path d="M 350.51 1756.10 Q 320.50 1485.07 321.05 1473.65 Q 321.60 1462.23 354.86 1417.78 Q 388.12 1373.33 392.08 1371.13 Q 396.04 1368.92 663.56 1331.02 Q 931.07 1293.12 936.80 1293.69 Q 942.53 1294.26 996.40 1308.06 Q 1050.27 1321.86 1259.29 1458.02 Q 1468.32 1594.19 1485.24 1634.16 Q 1502.17 1674.14 1466.20 1727.33 Q 1430.24 1780.51 1384.62 1831.18 Q 1339.00 1881.84 1169.87 1928.72 Q 1000.75 1975.60 845.43 2002.78 Q 690.12 2029.95 535.32 2028.54 Q 380.53 2027.12 350.51 1756.10 Z" fill="white"/><path d="M 225.12 2945.99 Q 223.30 2939.66 266.66 2641.76 Q 310.03 2343.87 324.82 2322.10 Q 339.61 2300.32 492.95 2148.02 Q 646.30 1995.72 848.21 1967.86 Q 1050.12 1940.00 1183.86 2011.93 Q 1317.60 2083.86 1328.56 2170.77 Q 1339.52 2257.68 1209.18 2486.95 Q 1078.85 2716.23 990.93 2800.68 Q 903.02 2885.14 577.46 2926.19 Q 251.90 2967.25 239.42 2959.78 Q 226.95 2952.32 225.12 2945.99 Z" fill="white"/><path d="M 2353.72 1612.22 Q 2345.54 1570.70 2376.02 1424.98 Q 2406.51 1279.26 2444.44 1105.46 Q 2482.38 931.66 2486.60 929.41 Q 2490.82 927.17 2597.34 913.14 Q 2703.86 899.11 2991.87 878.57 Q 3279.88 858.03 3317.46 935.04 Q 3355.04 1012.06 3355.47 1014.24 Q 3355.90 1016.42 3322.31 1159.30 Q 3288.72 1302.18 3226.75 1380.05 Q 3164.78 1457.92 2963.10 1617.49 Q 2761.41 1777.06 2744.13 1781.32 Q 2726.84 1785.58 2580.19 1764.29 Q 2433.53 1743.00 2397.72 1698.37 Q 2361.90 1653.74 2353.72 1612.22 Z" fill="white"/><path d="M 1391.21 726.42 Q 1367.80 597.52 1389.25 513.93 Q 1410.71 430.33 1418.20 427.60 Q 1425.68 424.87 1448.47 416.85 Q 1471.26 408.83 1724.08 367.12 Q 1976.90 325.41 2520.42 279.01 Q 3063.94 232.61 3307.43 281.87 Q 3550.93 331.13 3753.74 550.00 Q 3956.55 768.87 3912.70 855.34 Q 3868.84 941.81 2901.00 1887.98 Q 1933.15 2834.16 1673.89 1844.74 Q 1414.63 855.33 1391.21 726.42 Z" fill="white"/><path d="M 443.26 810.18 Q 385.76 739.85 483.74 719.91 Q 581.73 699.97 668.83 722.57 Q 755.93 745.17 787.19 760.27 Q 818.44 775.38 838.76 789.24 Q 859.08 803.11 859.90 811.84 Q 860.72 820.57 858.66 967.86 Q 856.59 1115.15 828.06 1132.02 Q 799.53 1148.89 787.50 1150.50 Q 775.46 1152.11 720.91 1099.94 Q 666.36 1047.78 583.56 964.14 Q 500.76 880.51 443.26 810.18 Z" fill="white"/>
    </mask>
    <style>
      .composition-link { fill:none; stroke:#b18a4b; stroke-width:6; stroke-opacity:.38; stroke-dasharray:18 24; }
      .contour { fill:none; stroke:#1e1b18; stroke-linecap:round; stroke-linejoin:round; }
      .contour-middle { stroke-width:4; stroke-opacity:.23; stroke-dasharray:10 17; }
      .contour-inner { stroke-width:3; stroke-opacity:.14; stroke-dasharray:4 13; }
      .region-name { font-family:Georgia,'Times New Roman',serif; font-size:29px; font-weight:700; letter-spacing:6px; fill:#1e1b18; }
      .region-count { font-family:Arial,sans-serif; font-size:14px; font-weight:700; letter-spacing:2.5px; fill:#554d43; }
      .confirmed-anchor > circle:first-of-type { fill:#9b352f; fill-opacity:.24; stroke:#9b352f; stroke-width:5; }
      .confirmed-anchor .anchor-core { fill:#efe5cd; stroke:#9b352f; stroke-width:3; }
      .unassigned-guide path { fill:none; stroke:#b18a4b; stroke-width:6; stroke-dasharray:7 6; }
      .draft-title { font-family:Georgia,'Times New Roman',serif; font-size:55px; font-weight:700; letter-spacing:11px; fill:#efe5cd; }
      .draft-subtitle { font-family:Arial,sans-serif; font-size:19px; font-weight:700; letter-spacing:7px; fill:#b18a4b; }
      .legend { font-family:Arial,sans-serif; font-size:18px; letter-spacing:2px; fill:#efe5cd; }
    </style>
  </defs>

  <rect width="4096" height="4096" fill="url(#oceanGradient)"/>
  <rect width="4096" height="4096" fill="url(#oceanLines)" opacity="0.72"/>
  <g id="title-block" transform="translate(120 105)">
    <rect width="1240" height="178" rx="32" fill="#070b0d" fill-opacity="0.84" stroke="#b18a4b" stroke-opacity="0.5" stroke-width="3"/>
    <text x="42" y="75" class="draft-title">ATLAS</text>
    <text x="44" y="125" class="draft-subtitle">ORIGINAL REGIONAL COMPOSITION · V1</text>
  </g>

  <g id="original-land-silhouette" filter="url(#paperGrain)">
    <g id="land-connectors"><path d="M 3000.49 2737.78 L 3147.69 1943.22" stroke="url(#landGradient)" stroke-width="118" stroke-linecap="round" stroke-opacity="0.98"/><path d="M 3000.49 2737.78 L 1873.65 3314.89" stroke="url(#landGradient)" stroke-width="118" stroke-linecap="round" stroke-opacity="0.98"/><path d="M 3000.49 2737.78 L 1811.94 2223.18" stroke="url(#landGradient)" stroke-width="118" stroke-linecap="round" stroke-opacity="0.98"/><path d="M 3147.69 1943.22 L 1811.94 2223.18" stroke="url(#landGradient)" stroke-width="118" stroke-linecap="round" stroke-opacity="0.98"/><path d="M 3147.69 1943.22 L 2751.08 1383.49" stroke="url(#landGradient)" stroke-width="118" stroke-linecap="round" stroke-opacity="0.98"/><path d="M 3147.69 1943.22 L 2520.52 643.89" stroke="url(#landGradient)" stroke-width="118" stroke-linecap="round" stroke-opacity="0.98"/><path d="M 1873.65 3314.89 L 1811.94 2223.18" stroke="url(#landGradient)" stroke-width="118" stroke-linecap="round" stroke-opacity="0.98"/><path d="M 1873.65 3314.89 L 737.03 2427.14" stroke="url(#landGradient)" stroke-width="118" stroke-linecap="round" stroke-opacity="0.98"/><path d="M 1675.36 1404.21 L 1811.94 2223.18" stroke="url(#landGradient)" stroke-width="118" stroke-linecap="round" stroke-opacity="0.98"/><path d="M 1675.36 1404.21 L 889.68 1639.25" stroke="url(#landGradient)" stroke-width="118" stroke-linecap="round" stroke-opacity="0.98"/><path d="M 1675.36 1404.21 L 737.03 2427.14" stroke="url(#landGradient)" stroke-width="118" stroke-linecap="round" stroke-opacity="0.98"/><path d="M 1675.36 1404.21 L 2751.08 1383.49" stroke="url(#landGradient)" stroke-width="118" stroke-linecap="round" stroke-opacity="0.98"/><path d="M 1675.36 1404.21 L 2520.52 643.89" stroke="url(#landGradient)" stroke-width="118" stroke-linecap="round" stroke-opacity="0.98"/><path d="M 1675.36 1404.21 L 707.75 903.74" stroke="url(#landGradient)" stroke-width="118" stroke-linecap="round" stroke-opacity="0.98"/><path d="M 1811.94 2223.18 L 889.68 1639.25" stroke="url(#landGradient)" stroke-width="118" stroke-linecap="round" stroke-opacity="0.98"/><path d="M 1811.94 2223.18 L 737.03 2427.14" stroke="url(#landGradient)" stroke-width="118" stroke-linecap="round" stroke-opacity="0.98"/><path d="M 889.68 1639.25 L 737.03 2427.14" stroke="url(#landGradient)" stroke-width="118" stroke-linecap="round" stroke-opacity="0.98"/><path d="M 889.68 1639.25 L 707.75 903.74" stroke="url(#landGradient)" stroke-width="118" stroke-linecap="round" stroke-opacity="0.98"/><path d="M 737.03 2427.14 L 707.75 903.74" stroke="url(#landGradient)" stroke-width="118" stroke-linecap="round" stroke-opacity="0.98"/><path d="M 2751.08 1383.49 L 2520.52 643.89" stroke="url(#landGradient)" stroke-width="118" stroke-linecap="round" stroke-opacity="0.98"/></g>
    <g id="land-region-underlays"><path d="M 2417.43 3122.12 Q 1888.44 2623.01 2090.48 2379.85 Q 2292.52 2136.70 2329.24 2110.10 Q 2365.96 2083.50 2437.90 2081.17 Q 2509.85 2078.85 2629.58 2098.15 Q 2749.31 2117.45 3067.40 2183.63 Q 3385.50 2249.82 3473.65 2343.51 Q 3561.80 2437.21 3676.48 2600.49 Q 3791.15 2763.77 3822.36 2953.19 Q 3853.57 3142.60 3809.61 3266.10 Q 3765.65 3389.59 3356.03 3505.41 Q 2946.41 3621.23 2417.43 3122.12 Z" fill="url(#landGradient)" stroke="#1e1b18" stroke-width="17" stroke-linejoin="round"/><path d="M 2877.79 1905.90 Q 2848.92 1830.92 2852.68 1810.45 Q 2856.43 1789.97 2871.92 1757.83 Q 2887.40 1725.68 2903.92 1698.30 Q 2920.44 1670.93 2921.50 1669.74 Q 2922.56 1668.56 3046.49 1607.92 Q 3170.42 1547.27 3236.05 1593.31 Q 3301.67 1639.34 3395.79 1827.63 Q 3489.90 2015.93 3476.84 2031.83 Q 3463.77 2047.72 3399.99 2094.91 Q 3336.21 2142.10 3334.51 2143.24 Q 3332.80 2144.39 3254.60 2150.85 Q 3176.40 2157.31 3118.10 2143.65 Q 3059.80 2129.98 3008.33 2095.83 Q 2956.87 2061.69 2931.76 2021.29 Q 2906.66 1980.89 2877.79 1905.90 Z" fill="url(#landGradient)" stroke="#1e1b18" stroke-width="17" stroke-linejoin="round"/><path d="M 1055.68 3129.50 Q 1051.96 3116.64 1054.00 2999.20 Q 1056.04 2881.76 1075.50 2777.55 Q 1094.95 2673.35 1556.76 2666.10 Q 2018.57 2658.86 2019.12 2659.24 Q 2019.68 2659.62 2046.33 2678.52 Q 2072.97 2697.42 2315.77 3005.88 Q 2558.58 3314.34 2621.74 3493.25 Q 2684.91 3672.16 2421.38 3766.79 Q 2157.86 3861.42 1954.00 3869.26 Q 1750.13 3877.11 1739.50 3872.39 Q 1728.86 3867.66 1394.13 3505.01 Q 1059.39 3142.36 1055.68 3129.50 Z" fill="url(#landGradient)" stroke="#1e1b18" stroke-width="17" stroke-linejoin="round"/><path d="M 1099.35 3044.13 Q 348.77 2745.82 789.34 1859.55 Q 1229.92 973.28 1369.84 940.44 Q 1509.77 907.60 1710.95 960.56 Q 1912.13 1013.51 1995.41 1044.02 Q 2078.68 1074.53 2801.84 1610.39 Q 3525.00 2146.26 3661.32 2791.22 Q 3797.64 3436.18 2823.79 3389.31 Q 1849.94 3342.44 1099.35 3044.13 Z" fill="url(#landGradient)" stroke="#1e1b18" stroke-width="17" stroke-linejoin="round"/><path d="M 1358.03 2551.92 Q 1279.95 2432.36 1354.50 2202.46 Q 1429.04 1972.56 1541.78 1922.63 Q 1654.51 1872.69 1697.74 1855.48 Q 1740.96 1838.28 2186.49 1808.93 Q 2632.02 1779.59 2731.89 1849.01 Q 2831.77 1918.43 2840.87 1927.16 Q 2849.97 1935.90 2853.79 1942.60 Q 2857.61 1949.29 2385.69 2318.56 Q 1913.78 2687.82 1713.48 2716.90 Q 1513.18 2745.98 1474.64 2708.73 Q 1436.11 2671.49 1358.03 2551.92 Z" fill="url(#landGradient)" stroke="#1e1b18" stroke-width="17" stroke-linejoin="round"/><path d="M 350.51 1756.10 Q 320.50 1485.07 321.05 1473.65 Q 321.60 1462.23 354.86 1417.78 Q 388.12 1373.33 392.08 1371.13 Q 396.04 1368.92 663.56 1331.02 Q 931.07 1293.12 936.80 1293.69 Q 942.53 1294.26 996.40 1308.06 Q 1050.27 1321.86 1259.29 1458.02 Q 1468.32 1594.19 1485.24 1634.16 Q 1502.17 1674.14 1466.20 1727.33 Q 1430.24 1780.51 1384.62 1831.18 Q 1339.00 1881.84 1169.87 1928.72 Q 1000.75 1975.60 845.43 2002.78 Q 690.12 2029.95 535.32 2028.54 Q 380.53 2027.12 350.51 1756.10 Z" fill="url(#landGradient)" stroke="#1e1b18" stroke-width="17" stroke-linejoin="round"/><path d="M 225.12 2945.99 Q 223.30 2939.66 266.66 2641.76 Q 310.03 2343.87 324.82 2322.10 Q 339.61 2300.32 492.95 2148.02 Q 646.30 1995.72 848.21 1967.86 Q 1050.12 1940.00 1183.86 2011.93 Q 1317.60 2083.86 1328.56 2170.77 Q 1339.52 2257.68 1209.18 2486.95 Q 1078.85 2716.23 990.93 2800.68 Q 903.02 2885.14 577.46 2926.19 Q 251.90 2967.25 239.42 2959.78 Q 226.95 2952.32 225.12 2945.99 Z" fill="url(#landGradient)" stroke="#1e1b18" stroke-width="17" stroke-linejoin="round"/><path d="M 2353.72 1612.22 Q 2345.54 1570.70 2376.02 1424.98 Q 2406.51 1279.26 2444.44 1105.46 Q 2482.38 931.66 2486.60 929.41 Q 2490.82 927.17 2597.34 913.14 Q 2703.86 899.11 2991.87 878.57 Q 3279.88 858.03 3317.46 935.04 Q 3355.04 1012.06 3355.47 1014.24 Q 3355.90 1016.42 3322.31 1159.30 Q 3288.72 1302.18 3226.75 1380.05 Q 3164.78 1457.92 2963.10 1617.49 Q 2761.41 1777.06 2744.13 1781.32 Q 2726.84 1785.58 2580.19 1764.29 Q 2433.53 1743.00 2397.72 1698.37 Q 2361.90 1653.74 2353.72 1612.22 Z" fill="url(#landGradient)" stroke="#1e1b18" stroke-width="17" stroke-linejoin="round"/><path d="M 1391.21 726.42 Q 1367.80 597.52 1389.25 513.93 Q 1410.71 430.33 1418.20 427.60 Q 1425.68 424.87 1448.47 416.85 Q 1471.26 408.83 1724.08 367.12 Q 1976.90 325.41 2520.42 279.01 Q 3063.94 232.61 3307.43 281.87 Q 3550.93 331.13 3753.74 550.00 Q 3956.55 768.87 3912.70 855.34 Q 3868.84 941.81 2901.00 1887.98 Q 1933.15 2834.16 1673.89 1844.74 Q 1414.63 855.33 1391.21 726.42 Z" fill="url(#landGradient)" stroke="#1e1b18" stroke-width="17" stroke-linejoin="round"/><path d="M 443.26 810.18 Q 385.76 739.85 483.74 719.91 Q 581.73 699.97 668.83 722.57 Q 755.93 745.17 787.19 760.27 Q 818.44 775.38 838.76 789.24 Q 859.08 803.11 859.90 811.84 Q 860.72 820.57 858.66 967.86 Q 856.59 1115.15 828.06 1132.02 Q 799.53 1148.89 787.50 1150.50 Q 775.46 1152.11 720.91 1099.94 Q 666.36 1047.78 583.56 964.14 Q 500.76 880.51 443.26 810.18 Z" fill="url(#landGradient)" stroke="#1e1b18" stroke-width="17" stroke-linejoin="round"/></g>
  </g>
  <g id="density-composition" mask="url(#landMask)"><circle cx="658.94" cy="881.19" r="103.39" fill="#1e1b18" fill-opacity="0.1136" class="density-bloom" data-location-count="46"/><circle cx="770.06" cy="770.06" r="102.50" fill="#1e1b18" fill-opacity="0.1118" class="density-bloom" data-location-count="45"/><circle cx="770.06" cy="881.19" r="101.60" fill="#1e1b18" fill-opacity="0.1100" class="density-bloom" data-location-count="44"/><circle cx="1547.94" cy="1325.69" r="100.69" fill="#1e1b18" fill-opacity="0.1082" class="density-bloom" data-location-count="43"/><circle cx="3325.94" cy="2548.06" r="96.94" fill="#1e1b18" fill-opacity="0.1009" class="density-bloom" data-location-count="39"/><circle cx="770.06" cy="1103.44" r="95.97" fill="#1e1b18" fill-opacity="0.0991" class="density-bloom" data-location-count="38"/><circle cx="2436.94" cy="1547.94" r="94.99" fill="#1e1b18" fill-opacity="0.0973" class="density-bloom" data-location-count="37"/><circle cx="1770.19" cy="3214.81" r="94.99" fill="#1e1b18" fill-opacity="0.0973" class="density-bloom" data-location-count="37"/><circle cx="770.06" cy="2548.06" r="90.93" fill="#1e1b18" fill-opacity="0.0900" class="density-bloom" data-location-count="33"/><circle cx="3325.94" cy="2103.56" r="89.88" fill="#1e1b18" fill-opacity="0.0882" class="density-bloom" data-location-count="32"/><circle cx="1103.44" cy="2214.69" r="88.81" fill="#1e1b18" fill-opacity="0.0864" class="density-bloom" data-location-count="31"/><circle cx="1436.81" cy="1103.44" r="87.73" fill="#1e1b18" fill-opacity="0.0845" class="density-bloom" data-location-count="30"/><circle cx="1770.19" cy="1881.31" r="87.73" fill="#1e1b18" fill-opacity="0.0845" class="density-bloom" data-location-count="30"/><circle cx="1770.19" cy="2325.81" r="86.62" fill="#1e1b18" fill-opacity="0.0827" class="density-bloom" data-location-count="29"/><circle cx="3437.06" cy="3103.69" r="86.62" fill="#1e1b18" fill-opacity="0.0827" class="density-bloom" data-location-count="29"/><circle cx="1103.44" cy="1659.06" r="84.35" fill="#1e1b18" fill-opacity="0.0791" class="density-bloom" data-location-count="27"/><circle cx="2548.06" cy="2548.06" r="83.19" fill="#1e1b18" fill-opacity="0.0773" class="density-bloom" data-location-count="26"/><circle cx="2103.56" cy="3659.31" r="83.19" fill="#1e1b18" fill-opacity="0.0773" class="density-bloom" data-location-count="26"/><circle cx="547.81" cy="770.06" r="82.00" fill="#1e1b18" fill-opacity="0.0755" class="density-bloom" data-location-count="25"/><circle cx="1770.19" cy="2214.69" r="82.00" fill="#1e1b18" fill-opacity="0.0755" class="density-bloom" data-location-count="25"/><circle cx="436.69" cy="2770.31" r="82.00" fill="#1e1b18" fill-opacity="0.0755" class="density-bloom" data-location-count="25"/><circle cx="1325.69" cy="1436.81" r="80.79" fill="#1e1b18" fill-opacity="0.0736" class="density-bloom" data-location-count="24"/><circle cx="881.19" cy="1659.06" r="80.79" fill="#1e1b18" fill-opacity="0.0736" class="density-bloom" data-location-count="24"/><circle cx="1659.06" cy="3103.69" r="80.79" fill="#1e1b18" fill-opacity="0.0736" class="density-bloom" data-location-count="24"/><circle cx="1547.94" cy="547.81" r="79.55" fill="#1e1b18" fill-opacity="0.0718" class="density-bloom" data-location-count="23"/><circle cx="881.19" cy="1436.81" r="78.28" fill="#1e1b18" fill-opacity="0.0700" class="density-bloom" data-location-count="22"/><circle cx="658.94" cy="1659.06" r="78.28" fill="#1e1b18" fill-opacity="0.0700" class="density-bloom" data-location-count="22"/><circle cx="436.69" cy="2325.81" r="78.28" fill="#1e1b18" fill-opacity="0.0700" class="density-bloom" data-location-count="22"/><circle cx="658.94" cy="992.31" r="76.99" fill="#1e1b18" fill-opacity="0.0682" class="density-bloom" data-location-count="21"/><circle cx="1436.81" cy="1214.56" r="76.99" fill="#1e1b18" fill-opacity="0.0682" class="density-bloom" data-location-count="21"/><circle cx="1770.19" cy="1436.81" r="76.99" fill="#1e1b18" fill-opacity="0.0682" class="density-bloom" data-location-count="21"/><circle cx="1770.19" cy="1992.44" r="76.99" fill="#1e1b18" fill-opacity="0.0682" class="density-bloom" data-location-count="21"/><circle cx="547.81" cy="1547.94" r="75.67" fill="#1e1b18" fill-opacity="0.0664" class="density-bloom" data-location-count="20"/><circle cx="3214.81" cy="2548.06" r="75.67" fill="#1e1b18" fill-opacity="0.0664" class="density-bloom" data-location-count="20"/><circle cx="1881.31" cy="881.19" r="74.31" fill="#1e1b18" fill-opacity="0.0645" class="density-bloom" data-location-count="19"/><circle cx="547.81" cy="1659.06" r="74.31" fill="#1e1b18" fill-opacity="0.0645" class="density-bloom" data-location-count="19"/><circle cx="1881.31" cy="1770.19" r="74.31" fill="#1e1b18" fill-opacity="0.0645" class="density-bloom" data-location-count="19"/><circle cx="2992.56" cy="1992.44" r="74.31" fill="#1e1b18" fill-opacity="0.0645" class="density-bloom" data-location-count="19"/><circle cx="3214.81" cy="2103.56" r="74.31" fill="#1e1b18" fill-opacity="0.0645" class="density-bloom" data-location-count="19"/><circle cx="2992.56" cy="1436.81" r="72.91" fill="#1e1b18" fill-opacity="0.0627" class="density-bloom" data-location-count="18"/><circle cx="1770.19" cy="2103.56" r="72.91" fill="#1e1b18" fill-opacity="0.0627" class="density-bloom" data-location-count="18"/><circle cx="2770.31" cy="2881.44" r="72.91" fill="#1e1b18" fill-opacity="0.0627" class="density-bloom" data-location-count="18"/><circle cx="1547.94" cy="1103.44" r="71.48" fill="#1e1b18" fill-opacity="0.0609" class="density-bloom" data-location-count="17"/><circle cx="2103.56" cy="1436.81" r="71.48" fill="#1e1b18" fill-opacity="0.0609" class="density-bloom" data-location-count="17"/><circle cx="2659.19" cy="1547.94" r="71.48" fill="#1e1b18" fill-opacity="0.0609" class="density-bloom" data-location-count="17"/><circle cx="658.94" cy="1881.31" r="71.48" fill="#1e1b18" fill-opacity="0.0609" class="density-bloom" data-location-count="17"/><circle cx="1547.94" cy="658.94" r="70.00" fill="#1e1b18" fill-opacity="0.0591" class="density-bloom" data-location-count="16"/><circle cx="2548.06" cy="658.94" r="68.48" fill="#1e1b18" fill-opacity="0.0573" class="density-bloom" data-location-count="15"/><circle cx="2436.94" cy="1325.69" r="68.48" fill="#1e1b18" fill-opacity="0.0573" class="density-bloom" data-location-count="15"/><circle cx="1214.56" cy="1770.19" r="68.48" fill="#1e1b18" fill-opacity="0.0573" class="density-bloom" data-location-count="15"/><circle cx="1214.56" cy="2214.69" r="68.48" fill="#1e1b18" fill-opacity="0.0573" class="density-bloom" data-location-count="15"/><circle cx="881.19" cy="2325.81" r="68.48" fill="#1e1b18" fill-opacity="0.0573" class="density-bloom" data-location-count="15"/><circle cx="547.81" cy="881.19" r="66.90" fill="#1e1b18" fill-opacity="0.0555" class="density-bloom" data-location-count="14"/><circle cx="1547.94" cy="1214.56" r="66.90" fill="#1e1b18" fill-opacity="0.0555" class="density-bloom" data-location-count="14"/><circle cx="1214.56" cy="1659.06" r="66.90" fill="#1e1b18" fill-opacity="0.0555" class="density-bloom" data-location-count="14"/><circle cx="2992.56" cy="1770.19" r="66.90" fill="#1e1b18" fill-opacity="0.0555" class="density-bloom" data-location-count="14"/><circle cx="2325.81" cy="2214.69" r="66.90" fill="#1e1b18" fill-opacity="0.0555" class="density-bloom" data-location-count="14"/><circle cx="2436.94" cy="2214.69" r="66.90" fill="#1e1b18" fill-opacity="0.0555" class="density-bloom" data-location-count="14"/><circle cx="1659.06" cy="2436.94" r="66.90" fill="#1e1b18" fill-opacity="0.0555" class="density-bloom" data-location-count="14"/><circle cx="325.56" cy="2770.31" r="66.90" fill="#1e1b18" fill-opacity="0.0555" class="density-bloom" data-location-count="14"/><circle cx="2659.19" cy="547.81" r="65.27" fill="#1e1b18" fill-opacity="0.0536" class="density-bloom" data-location-count="13"/><circle cx="1770.19" cy="1214.56" r="65.27" fill="#1e1b18" fill-opacity="0.0536" class="density-bloom" data-location-count="13"/><circle cx="3325.94" cy="1992.44" r="65.27" fill="#1e1b18" fill-opacity="0.0536" class="density-bloom" data-location-count="13"/><circle cx="1659.06" cy="2325.81" r="65.27" fill="#1e1b18" fill-opacity="0.0536" class="density-bloom" data-location-count="13"/><circle cx="3325.94" cy="881.19" r="63.57" fill="#1e1b18" fill-opacity="0.0518" class="density-bloom" data-location-count="12"/><circle cx="1881.31" cy="1103.44" r="63.57" fill="#1e1b18" fill-opacity="0.0518" class="density-bloom" data-location-count="12"/><circle cx="1325.69" cy="1214.56" r="63.57" fill="#1e1b18" fill-opacity="0.0518" class="density-bloom" data-location-count="12"/><circle cx="2770.31" cy="1325.69" r="63.57" fill="#1e1b18" fill-opacity="0.0518" class="density-bloom" data-location-count="12"/><circle cx="658.94" cy="1547.94" r="63.57" fill="#1e1b18" fill-opacity="0.0518" class="density-bloom" data-location-count="12"/><circle cx="992.31" cy="1547.94" r="63.57" fill="#1e1b18" fill-opacity="0.0518" class="density-bloom" data-location-count="12"/><circle cx="1325.69" cy="1770.19" r="63.57" fill="#1e1b18" fill-opacity="0.0518" class="density-bloom" data-location-count="12"/><circle cx="1881.31" cy="1992.44" r="63.57" fill="#1e1b18" fill-opacity="0.0518" class="density-bloom" data-location-count="12"/></g>
  <g id="regional-adjacency"><path d="M 3000.49 2737.78 L 3147.69 1943.22" class="composition-link" data-distance="0.22724445"/><path d="M 3000.49 2737.78 L 1873.65 3314.89" class="composition-link" data-distance="0.35602301"/><path d="M 3000.49 2737.78 L 1811.94 2223.18" class="composition-link" data-distance="0.36421911"/><path d="M 3147.69 1943.22 L 1811.94 2223.18" class="composition-link" data-distance="0.38379377"/><path d="M 3147.69 1943.22 L 2751.08 1383.49" class="composition-link" data-distance="0.19291477"/><path d="M 3147.69 1943.22 L 2520.52 643.89" class="composition-link" data-distance="0.40573113"/><path d="M 1873.65 3314.89 L 1811.94 2223.18" class="composition-link" data-distance="0.30749385"/><path d="M 1873.65 3314.89 L 737.03 2427.14" class="composition-link" data-distance="0.40557388"/><path d="M 1675.36 1404.21 L 1811.94 2223.18" class="composition-link" data-distance="0.23348919"/><path d="M 1675.36 1404.21 L 889.68 1639.25" class="composition-link" data-distance="0.23061814"/><path d="M 1675.36 1404.21 L 737.03 2427.14" class="composition-link" data-distance="0.39035805"/><path d="M 1675.36 1404.21 L 2751.08 1383.49" class="composition-link" data-distance="0.30256475"/><path d="M 1675.36 1404.21 L 2520.52 643.89" class="composition-link" data-distance="0.31969340"/><path d="M 1675.36 1404.21 L 707.75 903.74" class="composition-link" data-distance="0.30634794"/><path d="M 1811.94 2223.18 L 889.68 1639.25" class="composition-link" data-distance="0.30696874"/><path d="M 1811.94 2223.18 L 737.03 2427.14" class="composition-link" data-distance="0.30767499"/><path d="M 889.68 1639.25 L 737.03 2427.14" class="composition-link" data-distance="0.22568924"/><path d="M 889.68 1639.25 L 707.75 903.74" class="composition-link" data-distance="0.21306884"/><path d="M 737.03 2427.14 L 707.75 903.74" class="composition-link" data-distance="0.42848317"/><path d="M 2751.08 1383.49 L 2520.52 643.89" class="composition-link" data-distance="0.21785849"/></g>
  <g id="regional-masses"><g id="region-region-3144-omi" class="region-mass" data-region-id="region-3144-omi" data-location-count="444" data-anchor-count="7"><path d="M 2451.88 3099.41 Q 1954.15 2629.79 2144.25 2401.01 Q 2334.35 2172.22 2368.90 2147.19 Q 2403.45 2122.16 2471.15 2119.97 Q 2538.84 2117.79 2651.50 2135.95 Q 2764.15 2154.11 3063.45 2216.38 Q 3362.75 2278.65 3445.69 2366.81 Q 3528.63 2454.97 3636.53 2608.60 Q 3744.43 2762.24 3773.80 2940.46 Q 3803.16 3118.68 3761.80 3234.88 Q 3720.43 3351.08 3335.02 3460.05 Q 2949.61 3569.02 2451.88 3099.41 Z" fill="#b88f72" fill-opacity="0.58" stroke="#1e1b18" stroke-width="6" stroke-opacity="0.54"/></g><g id="region-region-3145-iga" class="region-mass" data-region-id="region-3145-iga" data-location-count="187" data-anchor-count="2"><path d="M 2893.74 1908.11 Q 2866.57 1837.55 2870.11 1818.29 Q 2873.64 1799.03 2888.21 1768.78 Q 2902.79 1738.53 2918.33 1712.77 Q 2933.87 1687.02 2934.87 1685.90 Q 2935.86 1684.79 3052.47 1627.73 Q 3169.08 1570.67 3230.83 1613.98 Q 3292.58 1657.30 3381.13 1834.46 Q 3469.68 2011.63 3457.39 2026.59 Q 3445.10 2041.55 3385.09 2085.95 Q 3325.07 2130.35 3323.47 2131.42 Q 3321.86 2132.50 3248.28 2138.58 Q 3174.71 2144.66 3119.85 2131.80 Q 3064.99 2118.95 3016.57 2086.82 Q 2968.14 2054.69 2944.52 2016.67 Q 2920.90 1978.66 2893.74 1908.11 Z" fill="#7f9b91" fill-opacity="0.58" stroke="#1e1b18" stroke-width="6" stroke-opacity="0.54"/></g><g id="region-region-3146-wakasa" class="region-mass" data-region-id="region-3146-wakasa" data-location-count="305" data-anchor-count="2"><path d="M 1104.01 3140.46 Q 1100.51 3128.36 1102.44 3017.86 Q 1104.36 2907.35 1122.66 2809.30 Q 1140.97 2711.26 1575.49 2704.44 Q 2010.00 2697.62 2010.53 2697.98 Q 2011.05 2698.34 2036.12 2716.12 Q 2061.20 2733.91 2289.65 3024.14 Q 2518.10 3314.37 2577.54 3482.71 Q 2636.97 3651.05 2389.02 3740.08 Q 2141.07 3829.12 1949.25 3836.51 Q 1757.43 3843.89 1747.42 3839.44 Q 1737.42 3835.00 1422.46 3493.78 Q 1107.51 3152.56 1104.01 3140.46 Z" fill="#9b8aa5" fill-opacity="0.58" stroke="#1e1b18" stroke-width="6" stroke-opacity="0.54"/></g><g id="region-region-3147-izumi-settsu" class="region-mass" data-region-id="region-3147-izumi-settsu" data-location-count="494" data-anchor-count="4"><path d="M 1133.39 2947.23 Q 427.16 2666.55 841.70 1832.65 Q 1256.24 998.75 1387.90 967.85 Q 1519.55 936.95 1708.85 986.77 Q 1898.14 1036.60 1976.50 1065.30 Q 2054.85 1094.01 2735.28 1598.21 Q 3415.70 2102.41 3543.97 2709.26 Q 3672.23 3316.11 2755.93 3272.01 Q 1839.62 3227.91 1133.39 2947.23 Z" fill="#b5a36f" fill-opacity="0.58" stroke="#1e1b18" stroke-width="6" stroke-opacity="0.54"/></g><g id="region-region-3148-yamashiro" class="region-mass" data-region-id="region-3148-yamashiro" data-location-count="358" data-anchor-count="11"><path d="M 1384.85 2532.50 Q 1311.38 2420.00 1381.53 2203.68 Q 1451.67 1987.37 1557.74 1940.39 Q 1663.81 1893.40 1704.48 1877.21 Q 1745.16 1861.02 2164.36 1833.41 Q 2583.56 1805.80 2677.53 1871.12 Q 2771.51 1936.44 2780.07 1944.66 Q 2788.63 1952.88 2792.22 1959.18 Q 2795.82 1965.48 2351.79 2312.92 Q 1907.76 2660.37 1719.30 2687.73 Q 1530.83 2715.09 1494.57 2680.04 Q 1458.32 2645.00 1384.85 2532.50 Z" fill="#718d9e" fill-opacity="0.58" stroke="#1e1b18" stroke-width="6" stroke-opacity="0.54"/></g><g id="region-region-3149-harima" class="region-mass" data-region-id="region-3149-harima" data-location-count="373" data-anchor-count="4"><path d="M 382.37 1749.19 Q 354.13 1494.18 354.65 1483.43 Q 355.17 1472.69 386.46 1430.86 Q 417.76 1389.04 421.49 1386.97 Q 425.21 1384.90 676.92 1349.23 Q 928.62 1313.57 934.01 1314.11 Q 939.40 1314.65 990.09 1327.63 Q 1040.78 1340.61 1237.45 1468.73 Q 1434.12 1596.85 1450.05 1634.46 Q 1465.98 1672.08 1432.14 1722.12 Q 1398.29 1772.17 1355.37 1819.84 Q 1312.45 1867.50 1153.32 1911.62 Q 994.18 1955.73 848.05 1981.30 Q 701.91 2006.86 556.26 2005.53 Q 410.61 2004.20 382.37 1749.19 Z" fill="#9a786c" fill-opacity="0.58" stroke="#1e1b18" stroke-width="6" stroke-opacity="0.54"/></g><g id="region-region-3150-tamba" class="region-mass" data-region-id="region-3150-tamba" data-location-count="317" data-anchor-count="2"><path d="M 255.37 2915.33 Q 253.65 2909.37 294.46 2629.08 Q 335.26 2348.79 349.18 2328.30 Q 363.09 2307.82 507.38 2164.51 Q 651.66 2021.21 841.64 1995.00 Q 1031.62 1968.78 1157.45 2036.46 Q 1283.29 2104.14 1293.60 2185.92 Q 1303.92 2267.69 1181.28 2483.42 Q 1058.65 2699.15 975.93 2778.61 Q 893.21 2858.07 586.89 2896.70 Q 280.57 2935.34 268.83 2928.31 Q 257.09 2921.29 255.37 2915.33 Z" fill="#81956f" fill-opacity="0.58" stroke="#1e1b18" stroke-width="6" stroke-opacity="0.54"/></g><g id="region-region-3151-yamato" class="region-mass" data-region-id="region-3151-yamato" data-location-count="298" data-anchor-count="7"><path d="M 2377.20 1598.70 Q 2369.50 1559.64 2398.19 1422.53 Q 2426.87 1285.42 2462.56 1121.89 Q 2498.26 958.36 2502.23 956.24 Q 2506.20 954.13 2606.42 940.93 Q 2706.65 927.73 2977.64 908.41 Q 3248.63 889.08 3283.99 961.54 Q 3319.35 1034.01 3319.76 1036.06 Q 3320.16 1038.11 3288.55 1172.55 Q 3256.95 1306.99 3198.64 1380.26 Q 3140.33 1453.52 2950.57 1603.66 Q 2760.80 1753.80 2744.54 1757.81 Q 2728.27 1761.82 2590.28 1741.79 Q 2452.30 1721.76 2418.60 1679.76 Q 2384.90 1637.77 2377.20 1598.70 Z" fill="#aa8f63" fill-opacity="0.58" stroke="#1e1b18" stroke-width="6" stroke-opacity="0.54"/></g><g id="region-region-3152-kii" class="region-mass" data-region-id="region-3152-kii" data-location-count="384" data-anchor-count="11"><path d="M 1457.94 721.55 Q 1435.91 600.26 1456.10 521.61 Q 1476.29 442.95 1483.33 440.38 Q 1490.38 437.81 1511.82 430.26 Q 1533.26 422.72 1771.15 383.48 Q 2009.03 344.23 2520.43 300.57 Q 3031.83 256.91 3260.94 303.26 Q 3490.04 349.61 3680.87 555.55 Q 3871.69 761.49 3830.43 842.84 Q 3789.17 924.20 2878.52 1814.47 Q 1967.86 2704.74 1723.92 1773.79 Q 1479.98 842.83 1457.94 721.55 Z" fill="#7f7d9e" fill-opacity="0.58" stroke="#1e1b18" stroke-width="6" stroke-opacity="0.54"/></g><g id="region-region-3304-awaji" class="region-mass" data-region-id="region-3304-awaji" data-location-count="265" data-anchor-count="0"><path d="M 458.89 815.71 Q 404.79 749.54 496.98 730.77 Q 589.17 712.01 671.13 733.27 Q 753.09 754.54 782.49 768.75 Q 811.90 782.96 831.02 796.01 Q 850.14 809.05 850.91 817.27 Q 851.68 825.48 849.74 964.07 Q 847.79 1102.65 820.95 1118.53 Q 794.11 1134.40 782.79 1135.92 Q 771.46 1137.43 720.14 1088.35 Q 668.81 1039.27 590.90 960.57 Q 512.99 881.88 458.89 815.71 Z" fill="#8d9a82" fill-opacity="0.58" stroke="#1e1b18" stroke-width="6" stroke-opacity="0.54"/></g></g>
  <g id="regional-contours"><path d="M 2544.64 3038.27 Q 2131.07 2648.05 2289.03 2457.95 Q 2446.98 2267.84 2475.69 2247.05 Q 2504.40 2226.25 2560.65 2224.43 Q 2616.89 2222.62 2710.50 2237.71 Q 2804.11 2252.79 3052.80 2304.54 Q 3301.49 2356.28 3370.41 2429.54 Q 3439.33 2502.79 3528.99 2630.45 Q 3618.64 2758.10 3643.04 2906.19 Q 3667.44 3054.28 3633.07 3150.83 Q 3598.70 3247.38 3278.46 3337.93 Q 2958.21 3428.48 2544.64 3038.27 Z" class="contour contour-middle"/><path d="M 2634.75 2978.87 Q 2302.93 2665.79 2429.66 2513.26 Q 2556.40 2360.74 2579.43 2344.05 Q 2602.46 2327.37 2647.59 2325.91 Q 2692.72 2324.45 2767.83 2336.56 Q 2842.93 2348.66 3042.46 2390.18 Q 3241.99 2431.70 3297.29 2490.47 Q 3352.58 2549.24 3424.52 2651.66 Q 3496.45 2754.09 3516.03 2872.90 Q 3535.60 2991.71 3508.03 3069.18 Q 3480.45 3146.65 3223.51 3219.30 Q 2966.57 3291.94 2634.75 2978.87 Z" class="contour contour-inner"/><path d="M 2936.68 1914.05 Q 2914.11 1855.42 2917.04 1839.42 Q 2919.98 1823.41 2932.09 1798.28 Q 2944.19 1773.14 2957.11 1751.74 Q 2970.03 1730.34 2970.85 1729.41 Q 2971.68 1728.49 3068.57 1681.08 Q 3165.46 1633.66 3216.77 1669.65 Q 3268.08 1705.64 3341.66 1852.85 Q 3415.23 2000.07 3405.02 2012.49 Q 3394.81 2024.92 3344.95 2061.82 Q 3295.08 2098.71 3293.75 2099.60 Q 3292.41 2100.50 3231.28 2105.55 Q 3170.14 2110.60 3124.56 2099.92 Q 3078.97 2089.23 3038.74 2062.54 Q 2998.50 2035.84 2978.87 2004.25 Q 2959.25 1972.67 2936.68 1914.05 Z" class="contour contour-middle"/><path d="M 2978.39 1919.81 Q 2960.28 1872.78 2962.64 1859.94 Q 2964.99 1847.09 2974.71 1826.93 Q 2984.42 1806.76 2994.78 1789.59 Q 3005.15 1772.42 3005.81 1771.68 Q 3006.47 1770.94 3084.21 1732.90 Q 3161.95 1694.85 3203.11 1723.73 Q 3244.28 1752.61 3303.31 1870.72 Q 3362.35 1988.83 3354.15 1998.80 Q 3345.96 2008.77 3305.95 2038.37 Q 3265.95 2067.97 3264.88 2068.69 Q 3263.80 2069.41 3214.75 2073.46 Q 3165.70 2077.52 3129.13 2068.94 Q 3092.56 2060.37 3060.27 2038.95 Q 3027.99 2017.53 3012.24 1992.19 Q 2996.50 1966.85 2978.39 1919.81 Z" class="contour contour-inner"/><path d="M 1234.14 3169.95 Q 1231.24 3159.90 1232.83 3068.08 Q 1234.43 2976.26 1249.64 2894.79 Q 1264.85 2813.32 1625.90 2807.66 Q 1986.95 2801.99 1987.39 2802.29 Q 1987.82 2802.58 2008.65 2817.36 Q 2029.49 2832.14 2219.31 3073.30 Q 2409.14 3314.46 2458.52 3454.33 Q 2507.90 3594.21 2301.88 3668.19 Q 2095.85 3742.17 1936.47 3748.31 Q 1777.08 3754.44 1768.77 3750.75 Q 1760.45 3747.06 1498.75 3463.53 Q 1237.05 3180.00 1234.14 3169.95 Z" class="contour contour-middle"/><path d="M 1360.56 3198.60 Q 1358.23 3190.54 1359.51 3116.87 Q 1360.79 3043.20 1372.99 2977.83 Q 1385.19 2912.47 1674.87 2907.92 Q 1964.55 2903.38 1964.90 2903.62 Q 1965.25 2903.85 1981.97 2915.71 Q 1998.68 2927.57 2150.98 3121.06 Q 2303.29 3314.55 2342.91 3426.77 Q 2382.53 3538.99 2217.23 3598.35 Q 2051.93 3657.71 1924.05 3662.63 Q 1796.17 3667.56 1789.50 3664.59 Q 1782.83 3661.63 1572.86 3434.15 Q 1362.89 3206.67 1360.56 3198.60 Z" class="contour contour-inner"/><path d="M 1225.03 2686.33 Q 638.20 2453.11 982.65 1760.21 Q 1327.11 1067.30 1436.50 1041.63 Q 1545.90 1015.95 1703.19 1057.35 Q 1860.47 1098.76 1925.58 1122.61 Q 1990.68 1146.46 2556.06 1565.41 Q 3121.44 1984.36 3228.02 2488.60 Q 3334.60 2992.84 2573.22 2956.19 Q 1811.85 2919.55 1225.03 2686.33 Z" class="contour contour-middle"/><path d="M 1314.04 2432.89 Q 843.22 2245.77 1119.58 1689.83 Q 1395.95 1133.90 1483.72 1113.30 Q 1571.49 1092.70 1697.69 1125.92 Q 1823.88 1159.14 1876.12 1178.27 Q 1928.35 1197.41 2381.97 1533.54 Q 2835.59 1869.68 2921.10 2274.24 Q 3006.61 2678.81 2395.74 2649.41 Q 1784.87 2620.01 1314.04 2432.89 Z" class="contour contour-inner"/><path d="M 1457.07 2480.20 Q 1396.02 2386.72 1454.30 2206.98 Q 1512.58 2027.24 1600.72 1988.20 Q 1688.86 1949.16 1722.65 1935.71 Q 1756.45 1922.26 2104.77 1899.32 Q 2453.09 1876.37 2531.18 1930.65 Q 2609.26 1984.92 2616.38 1991.75 Q 2623.49 1998.58 2626.48 2003.82 Q 2629.46 2009.05 2260.51 2297.75 Q 1891.56 2586.45 1734.96 2609.18 Q 1578.36 2631.91 1548.24 2602.80 Q 1518.11 2573.68 1457.07 2480.20 Z" class="contour contour-middle"/><path d="M 1527.22 2429.39 Q 1478.24 2354.39 1525.00 2210.18 Q 1571.76 2065.98 1642.47 2034.65 Q 1713.19 2003.33 1740.30 1992.54 Q 1767.42 1981.74 2046.89 1963.34 Q 2326.35 1944.93 2389.00 1988.47 Q 2451.65 2032.02 2457.36 2037.50 Q 2463.07 2042.98 2465.46 2047.18 Q 2467.86 2051.38 2171.84 2283.01 Q 1875.82 2514.64 1750.18 2532.88 Q 1624.53 2551.12 1600.36 2527.76 Q 1576.19 2504.39 1527.22 2429.39 Z" class="contour contour-inner"/><path d="M 468.15 1730.60 Q 444.68 1518.71 445.11 1509.78 Q 445.54 1500.85 471.55 1466.10 Q 497.55 1431.35 500.65 1429.62 Q 503.75 1427.90 712.89 1398.27 Q 922.04 1368.64 926.52 1369.09 Q 931.00 1369.53 973.11 1380.32 Q 1015.23 1391.11 1178.65 1497.56 Q 1342.07 1604.02 1355.30 1635.27 Q 1368.54 1666.53 1340.42 1708.11 Q 1312.30 1749.69 1276.63 1789.30 Q 1240.96 1828.91 1108.74 1865.56 Q 976.51 1902.22 855.09 1923.46 Q 733.66 1944.71 612.64 1943.60 Q 491.61 1942.50 468.15 1730.60 Z" class="contour contour-middle"/><path d="M 551.47 1712.54 Q 532.65 1542.53 532.99 1535.37 Q 533.34 1528.21 554.20 1500.32 Q 575.07 1472.44 577.55 1471.06 Q 580.04 1469.68 747.84 1445.90 Q 915.64 1422.13 919.24 1422.49 Q 922.83 1422.85 956.62 1431.50 Q 990.41 1440.16 1121.53 1525.57 Q 1252.64 1610.98 1263.26 1636.06 Q 1273.88 1661.13 1251.32 1694.50 Q 1228.76 1727.86 1200.14 1759.64 Q 1171.52 1791.42 1065.44 1820.83 Q 959.35 1850.23 861.93 1867.28 Q 764.50 1884.32 667.40 1883.44 Q 570.30 1882.55 551.47 1712.54 Z" class="contour contour-inner"/><path d="M 336.81 2832.79 Q 335.38 2827.84 369.29 2594.94 Q 403.19 2362.04 414.75 2345.02 Q 426.32 2327.99 546.21 2208.92 Q 666.09 2089.85 823.95 2068.07 Q 981.81 2046.28 1086.37 2102.52 Q 1190.93 2158.76 1199.50 2226.71 Q 1208.06 2294.65 1106.17 2473.91 Q 1004.27 2653.16 935.54 2719.18 Q 866.80 2785.21 612.28 2817.31 Q 357.75 2849.41 347.99 2843.57 Q 338.24 2837.74 336.81 2832.79 Z" class="contour contour-middle"/><path d="M 415.92 2752.60 Q 414.78 2748.63 441.98 2561.77 Q 469.18 2374.91 478.46 2361.25 Q 487.74 2347.59 583.93 2252.06 Q 680.12 2156.52 806.77 2139.05 Q 933.42 2121.57 1017.31 2166.69 Q 1101.20 2211.81 1108.08 2266.33 Q 1114.95 2320.84 1033.20 2464.66 Q 951.44 2608.48 896.30 2661.46 Q 841.15 2714.43 636.94 2740.18 Q 432.72 2765.94 424.90 2761.26 Q 417.07 2756.57 415.92 2752.60 Z" class="contour contour-inner"/><path d="M 2440.42 1562.32 Q 2434.02 1529.86 2457.85 1415.93 Q 2481.69 1302.00 2511.35 1166.12 Q 2541.01 1030.24 2544.30 1028.48 Q 2547.60 1026.73 2630.88 1015.76 Q 2714.16 1004.79 2939.33 988.73 Q 3164.50 972.68 3193.88 1032.89 Q 3223.27 1093.10 3223.60 1094.80 Q 3223.94 1096.50 3197.68 1208.21 Q 3171.42 1319.92 3122.97 1380.80 Q 3074.52 1441.68 2916.84 1566.44 Q 2759.16 1691.19 2745.64 1694.52 Q 2732.13 1697.85 2617.47 1681.21 Q 2502.81 1664.57 2474.81 1629.67 Q 2446.81 1594.78 2440.42 1562.32 Z" class="contour contour-middle"/><path d="M 2501.83 1526.97 Q 2496.69 1500.92 2515.82 1409.52 Q 2534.94 1318.11 2558.74 1209.09 Q 2582.53 1100.07 2585.18 1098.66 Q 2587.82 1097.25 2654.64 1088.45 Q 2721.46 1079.65 2902.12 1066.77 Q 3082.78 1053.88 3106.35 1102.19 Q 3129.93 1150.50 3130.20 1151.87 Q 3130.46 1153.23 3109.40 1242.86 Q 3088.33 1332.49 3049.45 1381.33 Q 3010.58 1430.18 2884.07 1530.27 Q 2757.56 1630.36 2746.72 1633.04 Q 2735.87 1635.71 2643.88 1622.36 Q 2551.89 1609.00 2529.42 1581.01 Q 2506.96 1553.01 2501.83 1526.97 Z" class="contour contour-inner"/><path d="M 1637.61 708.42 Q 1619.30 607.64 1636.07 542.28 Q 1652.85 476.93 1658.70 474.79 Q 1664.56 472.65 1682.37 466.38 Q 1700.19 460.11 1897.85 427.51 Q 2095.51 394.90 2520.44 358.62 Q 2945.37 322.34 3135.74 360.86 Q 3326.12 399.37 3484.67 570.49 Q 3643.23 741.60 3608.95 809.20 Q 3574.66 876.81 2817.98 1616.55 Q 2061.31 2356.28 1858.61 1582.74 Q 1655.91 809.20 1637.61 708.42 Z" class="contour contour-middle"/><path d="M 1812.14 695.66 Q 1797.45 614.80 1810.91 562.37 Q 1824.37 509.93 1829.06 508.22 Q 1833.76 506.50 1848.05 501.47 Q 1862.35 496.44 2020.94 470.28 Q 2179.52 444.12 2520.46 415.01 Q 2861.39 385.91 3014.13 416.81 Q 3166.87 447.71 3294.09 585.00 Q 3421.30 722.29 3393.79 776.53 Q 3366.29 830.77 2759.18 1424.28 Q 2152.08 2017.79 1989.45 1397.15 Q 1826.82 776.52 1812.14 695.66 Z" class="contour contour-inner"/><path d="M 500.97 830.59 Q 456.01 775.61 532.62 760.02 Q 609.22 744.43 677.32 762.10 Q 745.42 779.77 769.86 791.58 Q 794.29 803.38 810.18 814.22 Q 826.06 825.06 826.70 831.89 Q 827.35 838.71 825.73 953.87 Q 824.11 1069.02 801.81 1082.21 Q 779.51 1095.40 770.10 1096.66 Q 760.69 1097.92 718.04 1057.14 Q 675.39 1016.35 610.66 950.96 Q 545.92 885.58 500.97 830.59 Z" class="contour contour-middle"/><path d="M 541.84 845.05 Q 505.77 800.94 567.24 788.43 Q 628.70 775.92 683.34 790.10 Q 737.97 804.27 757.58 813.75 Q 777.18 823.22 789.93 831.92 Q 802.68 840.62 803.19 846.09 Q 803.70 851.57 802.41 943.96 Q 801.11 1036.35 783.22 1046.93 Q 765.32 1057.52 757.77 1058.53 Q 750.22 1059.54 716.01 1026.81 Q 681.79 994.09 629.85 941.63 Q 577.91 889.17 541.84 845.05 Z" class="contour contour-inner"/></g>
  <g id="region-labels"><g class="region-label" transform="translate(3000.49 2737.78)"><rect x="-185" y="-48" width="370" height="92" rx="30" fill="#efe5cd" fill-opacity="0.56" stroke="#1e1b18" stroke-opacity="0.18" stroke-width="3"/><text y="-7" text-anchor="middle" class="region-name">OMI</text><text y="25" text-anchor="middle" class="region-count">444 LOC · 7 ANCHOR</text></g><g class="region-label" transform="translate(3147.69 1943.22)"><rect x="-185" y="-48" width="370" height="92" rx="30" fill="#efe5cd" fill-opacity="0.56" stroke="#1e1b18" stroke-opacity="0.18" stroke-width="3"/><text y="-7" text-anchor="middle" class="region-name">IGA</text><text y="25" text-anchor="middle" class="region-count">187 LOC · 2 ANCHOR</text></g><g class="region-label" transform="translate(1873.65 3314.89)"><rect x="-185" y="-48" width="370" height="92" rx="30" fill="#efe5cd" fill-opacity="0.56" stroke="#1e1b18" stroke-opacity="0.18" stroke-width="3"/><text y="-7" text-anchor="middle" class="region-name">WAKASA</text><text y="25" text-anchor="middle" class="region-count">305 LOC · 2 ANCHOR</text></g><g class="region-label" transform="translate(1675.36 1404.21)"><rect x="-185" y="-48" width="370" height="92" rx="30" fill="#efe5cd" fill-opacity="0.56" stroke="#1e1b18" stroke-opacity="0.18" stroke-width="3"/><text y="-7" text-anchor="middle" class="region-name">IZUMI SETTSU</text><text y="25" text-anchor="middle" class="region-count">494 LOC · 4 ANCHOR</text></g><g class="region-label" transform="translate(1811.94 2223.18)"><rect x="-185" y="-48" width="370" height="92" rx="30" fill="#efe5cd" fill-opacity="0.56" stroke="#1e1b18" stroke-opacity="0.18" stroke-width="3"/><text y="-7" text-anchor="middle" class="region-name">YAMASHIRO</text><text y="25" text-anchor="middle" class="region-count">358 LOC · 11 ANCHOR</text></g><g class="region-label" transform="translate(889.68 1639.25)"><rect x="-185" y="-48" width="370" height="92" rx="30" fill="#efe5cd" fill-opacity="0.56" stroke="#1e1b18" stroke-opacity="0.18" stroke-width="3"/><text y="-7" text-anchor="middle" class="region-name">HARIMA</text><text y="25" text-anchor="middle" class="region-count">373 LOC · 4 ANCHOR</text></g><g class="region-label" transform="translate(737.03 2427.14)"><rect x="-185" y="-48" width="370" height="92" rx="30" fill="#efe5cd" fill-opacity="0.56" stroke="#1e1b18" stroke-opacity="0.18" stroke-width="3"/><text y="-7" text-anchor="middle" class="region-name">TAMBA</text><text y="25" text-anchor="middle" class="region-count">317 LOC · 2 ANCHOR</text></g><g class="region-label" transform="translate(2751.08 1383.49)"><rect x="-185" y="-48" width="370" height="92" rx="30" fill="#efe5cd" fill-opacity="0.56" stroke="#1e1b18" stroke-opacity="0.18" stroke-width="3"/><text y="-7" text-anchor="middle" class="region-name">YAMATO</text><text y="25" text-anchor="middle" class="region-count">298 LOC · 7 ANCHOR</text></g><g class="region-label" transform="translate(2520.52 643.89)"><rect x="-185" y="-48" width="370" height="92" rx="30" fill="#efe5cd" fill-opacity="0.56" stroke="#1e1b18" stroke-opacity="0.18" stroke-width="3"/><text y="-7" text-anchor="middle" class="region-name">KII</text><text y="25" text-anchor="middle" class="region-count">384 LOC · 11 ANCHOR</text></g><g class="region-label" transform="translate(707.75 903.74)"><rect x="-185" y="-48" width="370" height="92" rx="30" fill="#efe5cd" fill-opacity="0.56" stroke="#1e1b18" stroke-opacity="0.18" stroke-width="3"/><text y="-7" text-anchor="middle" class="region-name">AWAJI</text><text y="25" text-anchor="middle" class="region-count">265 LOC · 0 ANCHOR</text></g></g>
  <g id="confirmed-anchor-guides"><g class="confirmed-anchor" transform="translate(1878.71 1063.27)" data-location-id="location-mapgenie-434352"><circle r="12"/><circle r="4" class="anchor-core"/><title>Makinoodera Temple</title></g><g class="confirmed-anchor" transform="translate(3167.42 2033.67)" data-location-id="location-mapgenie-434366"><circle r="12"/><circle r="4" class="anchor-core"/><title>Aekuni Shrine</title></g><g class="confirmed-anchor" transform="translate(1739.56 1194.73)" data-location-id="location-mapgenie-434396"><circle r="12"/><circle r="4" class="anchor-core"/><title>Tennoji Temple</title></g><g class="confirmed-anchor" transform="translate(3199.86 2123.78)" data-location-id="location-mapgenie-434406"><circle r="12"/><circle r="4" class="anchor-core"/><title>Kasuga Shrine</title></g><g class="confirmed-anchor" transform="translate(1577.62 1152.55)" data-location-id="location-mapgenie-434532"><circle r="12"/><circle r="4" class="anchor-core"/><title>Sumiyoshi Shrine</title></g><g class="confirmed-anchor" transform="translate(1440.10 992.54)" data-location-id="location-mapgenie-434575"><circle r="12"/><circle r="4" class="anchor-core"/><title>Gansenji Temple</title></g><g class="confirmed-anchor" transform="translate(1767.33 2160.60)" data-location-id="location-mapgenie-434774"><circle r="12"/><circle r="4" class="anchor-core"/><title>Toji Temple</title></g><g class="confirmed-anchor" transform="translate(1773.87 2241.43)" data-location-id="location-mapgenie-434779"><circle r="12"/><circle r="4" class="anchor-core"/><title>Honnoji Temple</title></g><g class="confirmed-anchor" transform="translate(1723.16 2440.05)" data-location-id="location-mapgenie-434811"><circle r="12"/><circle r="4" class="anchor-core"/><title>Shokokuji Temple</title></g><g class="confirmed-anchor" transform="translate(1976.97 2246.04)" data-location-id="location-mapgenie-435009"><circle r="12"/><circle r="4" class="anchor-core"/><title>Kiyomizudera Temple</title></g><g class="confirmed-anchor" transform="translate(2335.54 2266.11)" data-location-id="location-mapgenie-435055"><circle r="12"/><circle r="4" class="anchor-core"/><title>Miidera</title></g><g class="confirmed-anchor" transform="translate(948.44 2165.71)" data-location-id="location-mapgenie-435078"><circle r="12"/><circle r="4" class="anchor-core"/><title>Annonji Temple</title></g><g class="confirmed-anchor" transform="translate(2701.14 1456.50)" data-location-id="location-mapgenie-435742"><circle r="12"/><circle r="4" class="anchor-core"/><title>Omiwa Shrine</title></g><g class="confirmed-anchor" transform="translate(3129.98 1129.89)" data-location-id="location-mapgenie-435783"><circle r="12"/><circle r="4" class="anchor-core"/><title>Niukawakami Shrine</title></g><g class="confirmed-anchor" transform="translate(3185.53 1121.62)" data-location-id="location-mapgenie-435786"><circle r="12"/><circle r="4" class="anchor-core"/><title>Nyoirinji Temple</title></g><g class="confirmed-anchor" transform="translate(3274.41 2764.18)" data-location-id="location-mapgenie-435820"><circle r="12"/><circle r="4" class="anchor-core"/><title>Isakiji Temple</title></g><g class="confirmed-anchor" transform="translate(3496.70 3217.84)" data-location-id="location-mapgenie-435872"><circle r="12"/><circle r="4" class="anchor-core"/><title>Nagahama Hachimangu Shrine</title></g><g class="confirmed-anchor" transform="translate(3697.07 3303.45)" data-location-id="location-mapgenie-435886"><circle r="12"/><circle r="4" class="anchor-core"/><title>Daikichiji Temple</title></g><g class="confirmed-anchor" transform="translate(3147.18 3208.01)" data-location-id="location-mapgenie-435908"><circle r="12"/><circle r="4" class="anchor-core"/><title>Hogonji Temple</title></g><g class="confirmed-anchor" transform="translate(1561.30 2465.99)" data-location-id="location-mapgenie-436340"><circle r="12"/><circle r="4" class="anchor-core"/><title>Kinkakuji Temple</title></g><g class="confirmed-anchor" transform="translate(1537.41 2677.10)" data-location-id="location-mapgenie-436354"><circle r="12"/><circle r="4" class="anchor-core"/><title>Kuramadera Temple</title></g><g class="confirmed-anchor" transform="translate(1524.07 581.08)" data-location-id="location-mapgenie-436387"><circle r="12"/><circle r="4" class="anchor-core"/><title>Saika Temple Grounds</title></g><g class="confirmed-anchor" transform="translate(2096.46 718.98)" data-location-id="location-mapgenie-436436"><circle r="12"/><circle r="4" class="anchor-core"/><title>Jison-in</title></g><g class="confirmed-anchor" transform="translate(2481.49 697.36)" data-location-id="location-mapgenie-436442"><circle r="12"/><circle r="4" class="anchor-core"/><title>Koyasan Danjo Garan</title></g><g class="confirmed-anchor" transform="translate(2567.32 728.72)" data-location-id="location-mapgenie-436455"><circle r="12"/><circle r="4" class="anchor-core"/><title>Kongobuji Temple</title></g><g class="confirmed-anchor" transform="translate(3663.07 674.73)" data-location-id="location-mapgenie-436509"><circle r="12"/><circle r="4" class="anchor-core"/><title>Kamikura Shrine</title></g><g class="confirmed-anchor" transform="translate(3682.87 759.27)" data-location-id="location-mapgenie-436521"><circle r="12"/><circle r="4" class="anchor-core"/><title>Kumano Hayatama Taisha</title></g><g class="confirmed-anchor" transform="translate(3334.14 513.56)" data-location-id="location-mapgenie-436647"><circle r="12"/><circle r="4" class="anchor-core"/><title>Kumano Nachi Taisha</title></g><g class="confirmed-anchor" transform="translate(3203.31 2537.62)" data-location-id="location-mapgenie-436705"><circle r="12"/><circle r="4" class="anchor-core"/><title>Sokenji Temple</title></g><g class="confirmed-anchor" transform="translate(2180.99 2524.03)" data-location-id="location-mapgenie-436781"><circle r="12"/><circle r="4" class="anchor-core"/><title>Enryakuji Temple</title></g><g class="confirmed-anchor" transform="translate(1944.70 3654.51)" data-location-id="location-mapgenie-437090"><circle r="12"/><circle r="4" class="anchor-core"/><title>Saifukuji Temple</title></g><g class="confirmed-anchor" transform="translate(1862.87 876.23)" data-location-id="location-mapgenie-437327"><circle r="12"/><circle r="4" class="anchor-core"/><title>Negoroji Temple Grounds</title></g><g class="confirmed-anchor" transform="translate(1816.64 431.78)" data-location-id="location-mapgenie-437468"><circle r="12"/><circle r="4" class="anchor-core"/><title>Dojoji Temple</title></g><g class="confirmed-anchor" transform="translate(2653.78 519.26)" data-location-id="location-mapgenie-437477"><circle r="12"/><circle r="4" class="anchor-core"/><title>Takahara Kumano Shrine</title></g><g class="confirmed-anchor" transform="translate(3025.78 714.83)" data-location-id="location-mapgenie-437483"><circle r="12"/><circle r="4" class="anchor-core"/><title>Kumano Hongu Taisha</title></g><g class="confirmed-anchor" transform="translate(1389.94 1610.78)" data-location-id="location-mapgenie-437563"><circle r="12"/><circle r="4" class="anchor-core"/><title>Tanjosan Myoyoji Temple</title></g><g class="confirmed-anchor" transform="translate(1287.54 1845.31)" data-location-id="location-mapgenie-437593"><circle r="12"/><circle r="4" class="anchor-core"/><title>Kyokaiji Temple</title></g><g class="confirmed-anchor" transform="translate(564.91 1815.17)" data-location-id="location-mapgenie-437649"><circle r="12"/><circle r="4" class="anchor-core"/><title>Mitsunodo Hall</title></g><g class="confirmed-anchor" transform="translate(385.30 1479.88)" data-location-id="location-mapgenie-437692"><circle r="12"/><circle r="4" class="anchor-core"/><title>Aga Hontokuji Temple</title></g><g class="confirmed-anchor" transform="translate(1864.25 2119.91)" data-location-id="location-mapgenie-437825"><circle r="12"/><circle r="4" class="anchor-core"/><title>Tofukuji Temple</title></g><g class="confirmed-anchor" transform="translate(1953.77 2005.64)" data-location-id="location-mapgenie-437835"><circle r="12"/><circle r="4" class="anchor-core"/><title>Iwashimizu Hachiman Shrine</title></g><g class="confirmed-anchor" transform="translate(2133.51 2065.51)" data-location-id="location-mapgenie-437840"><circle r="12"/><circle r="4" class="anchor-core"/><title>Byodoin Temple</title></g><g class="confirmed-anchor" transform="translate(1560.77 2246.82)" data-location-id="location-mapgenie-437845"><circle r="12"/><circle r="4" class="anchor-core"/><title>Tenryuji Temple</title></g><g class="confirmed-anchor" transform="translate(2642.07 1572.63)" data-location-id="location-mapgenie-437869"><circle r="12"/><circle r="4" class="anchor-core"/><title>Kofukuji Temple</title></g><g class="confirmed-anchor" transform="translate(2768.92 1622.13)" data-location-id="location-mapgenie-437898"><circle r="12"/><circle r="4" class="anchor-core"/><title>Kasugataisha Shrine</title></g><g class="confirmed-anchor" transform="translate(2678.66 1683.48)" data-location-id="location-mapgenie-437901"><circle r="12"/><circle r="4" class="anchor-core"/><title>Todaiji Temple</title></g><g class="confirmed-anchor" transform="translate(1906.42 2444.74)" data-location-id="location-mapgenie-437937"><circle r="12"/><circle r="4" class="anchor-core"/><title>Ginkakuji Temple</title></g><g class="confirmed-anchor" transform="translate(336.59 2651.58)" data-location-id="location-mapgenie-438261"><circle r="12"/><circle r="4" class="anchor-core"/><title>Sukyoji Temple</title></g><g class="confirmed-anchor" transform="translate(1779.18 2802.96)" data-location-id="location-mapgenie-438274"><circle r="12"/><circle r="4" class="anchor-core"/><title>Gokurakuji Temple</title></g><g class="confirmed-anchor" transform="translate(2729.04 1749.02)" data-location-id="location-mapgenie-438333"><circle r="12"/><circle r="4" class="anchor-core"/><title>Hinode Shrine</title></g></g>
  <g id="unassigned-location-guides"><g class="unassigned-guide" transform="translate(2109.64 1369.25)" data-location-id="location-mapgenie-479929"><path d="M 0 -17 L 17 0 L 0 17 L -17 0 Z"/><title>News from Hattori Hanzo — pending region classification</title></g><g class="unassigned-guide" transform="translate(1159.00 1389.28)" data-location-id="location-mapgenie-479932"><path d="M 0 -17 L 17 0 L 0 17 L -17 0 Z"/><title>The Puppet Show — pending region classification</title></g><g class="unassigned-guide" transform="translate(2112.86 1376.87)" data-location-id="location-mapgenie-481173"><path d="M 0 -17 L 17 0 L 0 17 L -17 0 Z"/><title>Painting Memories — pending region classification</title></g><g class="unassigned-guide" transform="translate(1501.31 493.09)" data-location-id="location-mapgenie-605004"><path d="M 0 -17 L 17 0 L 0 17 L -17 0 Z"/><title>Black Tides — pending region classification</title></g><g class="unassigned-guide" transform="translate(3044.12 339.35)" data-location-id="location-mapgenie-605006"><path d="M 0 -17 L 17 0 L 0 17 L -17 0 Z"/><title>Horizon — pending region classification</title></g></g>

  <g id="legend" transform="translate(120 3800)">
    <rect width="1450" height="184" rx="28" fill="#070b0d" fill-opacity="0.84" stroke="#b18a4b" stroke-opacity="0.58" stroke-width="3"/>
    <circle cx="62" cy="60" r="12" fill="#9b352f" fill-opacity="0.35" stroke="#9b352f" stroke-width="5"/>
    <text x="98" y="68" class="legend">CONFIRMED ALIGNMENT ANCHOR · 50</text>
    <path d="M 46 126 L 62 110 L 78 126 L 62 142 Z" fill="none" stroke="#b18a4b" stroke-width="5" stroke-dasharray="6 5"/>
    <text x="98" y="135" class="legend">UNASSIGNED LOCATION GUIDE · 5</text>
    <text x="790" y="68" class="legend">10 ORIGINAL REGION MASSES</text>
    <text x="790" y="135" class="legend">CONSTRUCTION DRAFT · NOT FINAL TERRAIN</text>
  </g>
</svg>
