<?xml version="1.0" encoding="UTF-8"?>
<svg xmlns="http://www.w3.org/2000/svg" width="4096" height="4096" viewBox="0 0 4096 4096"
     role="img" aria-labelledby="title description" data-atlas-asset="original-regional-composition-v1">
  <title id="title">Atlas Original Regional Composition V1</title>
  <desc id="description">Repository-owned editable construction draft generated from Atlas point data and confirmed anchors. Not a final coastline, terrain map, road map, or calibrated production base.</desc>
  <metadata>{&quot;strategy&quot;:&quot;fully-original-authored-visual-base&quot;,&quot;stage&quot;:&quot;original-regional-composition&quot;,&quot;generatedAt&quot;:&quot;2026-07-23T16:50:00Z&quot;,&quot;sourceSkeleton&quot;:&quot;data/geospatial/geospatial-original-authored-base-skeleton.json&quot;,&quot;thirdPartyRasterUsed&quot;:false,&quot;thirdPartyVectorUsed&quot;:false,&quot;finalBaseApproved&quot;:false}</metadata>
  <defs>
    <linearGradient id="oceanGradient" x1="0" y1="0" x2="1" y2="1">
      <stop offset="0" stop-color="#0b1013"/>
      <stop offset="0.55" stop-color="#131c20"/>
      <stop offset="1" stop-color="#070b0d"/>
    </linearGradient>
    <linearGradient id="landGradient" x1="0" y1="0" x2="0.8" y2="1">
      <stop offset="0" stop-color="#eadfc4"/>
      <stop offset="0.58" stop-color="#d4c39d"/>
      <stop offset="1" stop-color="#b9a47b"/>
    </linearGradient>
    <pattern id="oceanLines" width="92" height="92" patternUnits="userSpaceOnUse" patternTransform="rotate(-12)">
      <path d="M -20 28 Q 20 12 60 28 T 140 28" fill="none" stroke="#29373d" stroke-width="3" stroke-opacity="0.42"/>
      <path d="M -20 68 Q 20 52 60 68 T 140 68" fill="none" stroke="#29373d" stroke-width="2" stroke-opacity="0.25"/>
    </pattern>
    <filter id="paperGrain" x="-10%" y="-10%" width="120%" height="120%">
      <feTurbulence type="fractalNoise" baseFrequency="0.008 0.03" numOctaves="2" seed="47" result="noise"/>
      <feColorMatrix in="noise" values="0.25 0 0 0 0.62  0 0.22 0 0 0.55  0 0 0.18 0 0.45  0 0 0 0.16 0" result="grain"/>
      <feBlend in="SourceGraphic" in2="grain" mode="multiply"/>
    </filter>
    <clipPath id="landClip"><path d="M 10.00 3062.35 Q 10.00 3055.49 53.54 1780.87 Q 97.09 506.25 783.55 312.79 Q 1470.02 119.33 1744.02 74.13 Q 2018.03 28.93 2607.08 19.46 Q 3196.14 10.00 3460.04 22.56 Q 3723.94 35.12 3904.97 272.33 Q 4086.00 509.54 4086.00 1909.32 Q 4086.00 3309.10 4047.33 3442.95 Q 4008.67 3576.79 3076.35 3831.40 Q 2144.04 4086.00 1923.09 4086.00 Q 1702.14 4086.00 1690.62 4086.00 Q 1679.09 4086.00 844.55 3577.61 Q 10.00 3069.21 10.00 3062.35 Z"/></clipPath>
    <style>
      .composition-link { fill:none; stroke:#b18a4b; stroke-width:6; stroke-opacity:.34; stroke-dasharray:18 24; }
      .contour { fill:none; stroke:#1e1b18; stroke-linecap:round; stroke-linejoin:round; }
      .contour-middle { stroke-width:4; stroke-opacity:.22; stroke-dasharray:10 17; }
      .contour-inner { stroke-width:3; stroke-opacity:.13; stroke-dasharray:4 13; }
      .region-name { font-family:Georgia,'Times New Roman',serif; font-size:31px; font-weight:700; letter-spacing:7px; fill:#1e1b18; paint-order:stroke; stroke:#efe5cd; stroke-width:5px; stroke-opacity:.45; }
      .region-count { font-family:Arial,sans-serif; font-size:15px; font-weight:700; letter-spacing:3px; fill:#554d43; }
      .confirmed-anchor > circle:first-of-type { fill:#9b352f; fill-opacity:.22; stroke:#9b352f; stroke-width:5; }
      .confirmed-anchor .anchor-core { fill:#efe5cd; stroke:#9b352f; stroke-width:3; }
      .unassigned-guide path { fill:none; stroke:#b18a4b; stroke-width:6; stroke-dasharray:7 6; }
      .draft-title { font-family:Georgia,'Times New Roman',serif; font-size:55px; font-weight:700; letter-spacing:11px; fill:#efe5cd; }
      .draft-subtitle { font-family:Arial,sans-serif; font-size:20px; font-weight:700; letter-spacing:8px; fill:#b18a4b; }
      .legend { font-family:Arial,sans-serif; font-size:18px; letter-spacing:2px; fill:#efe5cd; }
    </style>
  </defs>

  <rect width="4096" height="4096" fill="url(#oceanGradient)"/>
  <rect width="4096" height="4096" fill="url(#oceanLines)" opacity="0.72"/>
  <g id="title-block" transform="translate(190 180)">
    <text class="draft-title">ATLAS</text>
    <text y="52" class="draft-subtitle">ORIGINAL REGIONAL COMPOSITION · V1</text>
  </g>

  <g id="land-composition" filter="url(#paperGrain)">
    <path id="original-land-silhouette" d="M 10.00 3062.35 Q 10.00 3055.49 53.54 1780.87 Q 97.09 506.25 783.55 312.79 Q 1470.02 119.33 1744.02 74.13 Q 2018.03 28.93 2607.08 19.46 Q 3196.14 10.00 3460.04 22.56 Q 3723.94 35.12 3904.97 272.33 Q 4086.00 509.54 4086.00 1909.32 Q 4086.00 3309.10 4047.33 3442.95 Q 4008.67 3576.79 3076.35 3831.40 Q 2144.04 4086.00 1923.09 4086.00 Q 1702.14 4086.00 1690.62 4086.00 Q 1679.09 4086.00 844.55 3577.61 Q 10.00 3069.21 10.00 3062.35 Z" fill="url(#landGradient)" stroke="#1e1b18" stroke-width="18" stroke-linejoin="round"/>
    <g clip-path="url(#landClip)">
      <g id="density-composition"><circle cx="448.00" cy="704.00" r="133.00" fill="#1e1b18" fill-opacity="0.1270" class="density-bloom" data-location-count="46"/><circle cx="576.00" cy="576.00" r="133.00" fill="#1e1b18" fill-opacity="0.1250" class="density-bloom" data-location-count="45"/><circle cx="576.00" cy="704.00" r="133.00" fill="#1e1b18" fill-opacity="0.1230" class="density-bloom" data-location-count="44"/><circle cx="1472.00" cy="1216.00" r="132.92" fill="#1e1b18" fill-opacity="0.1210" class="density-bloom" data-location-count="43"/><circle cx="3520.00" cy="2624.00" r="127.92" fill="#1e1b18" fill-opacity="0.1130" class="density-bloom" data-location-count="39"/><circle cx="576.00" cy="960.00" r="126.63" fill="#1e1b18" fill-opacity="0.1110" class="density-bloom" data-location-count="38"/><circle cx="2496.00" cy="1472.00" r="125.32" fill="#1e1b18" fill-opacity="0.1090" class="density-bloom" data-location-count="37"/><circle cx="1728.00" cy="3392.00" r="125.32" fill="#1e1b18" fill-opacity="0.1090" class="density-bloom" data-location-count="37"/><circle cx="576.00" cy="2624.00" r="119.91" fill="#1e1b18" fill-opacity="0.1010" class="density-bloom" data-location-count="33"/><circle cx="3520.00" cy="2112.00" r="118.51" fill="#1e1b18" fill-opacity="0.0990" class="density-bloom" data-location-count="32"/><circle cx="960.00" cy="2240.00" r="117.08" fill="#1e1b18" fill-opacity="0.0970" class="density-bloom" data-location-count="31"/><circle cx="1344.00" cy="960.00" r="115.64" fill="#1e1b18" fill-opacity="0.0950" class="density-bloom" data-location-count="30"/><circle cx="1728.00" cy="1856.00" r="115.64" fill="#1e1b18" fill-opacity="0.0950" class="density-bloom" data-location-count="30"/><circle cx="1728.00" cy="2368.00" r="114.16" fill="#1e1b18" fill-opacity="0.0930" class="density-bloom" data-location-count="29"/><circle cx="3648.00" cy="3264.00" r="114.16" fill="#1e1b18" fill-opacity="0.0930" class="density-bloom" data-location-count="29"/><circle cx="960.00" cy="1600.00" r="111.14" fill="#1e1b18" fill-opacity="0.0890" class="density-bloom" data-location-count="27"/><circle cx="2624.00" cy="2624.00" r="109.58" fill="#1e1b18" fill-opacity="0.0870" class="density-bloom" data-location-count="26"/><circle cx="2112.00" cy="3904.00" r="109.58" fill="#1e1b18" fill-opacity="0.0870" class="density-bloom" data-location-count="26"/><circle cx="320.00" cy="576.00" r="108.00" fill="#1e1b18" fill-opacity="0.0850" class="density-bloom" data-location-count="25"/><circle cx="1728.00" cy="2240.00" r="108.00" fill="#1e1b18" fill-opacity="0.0850" class="density-bloom" data-location-count="25"/><circle cx="192.00" cy="2880.00" r="108.00" fill="#1e1b18" fill-opacity="0.0850" class="density-bloom" data-location-count="25"/><circle cx="1216.00" cy="1344.00" r="106.38" fill="#1e1b18" fill-opacity="0.0830" class="density-bloom" data-location-count="24"/><circle cx="704.00" cy="1600.00" r="106.38" fill="#1e1b18" fill-opacity="0.0830" class="density-bloom" data-location-count="24"/><circle cx="1600.00" cy="3264.00" r="106.38" fill="#1e1b18" fill-opacity="0.0830" class="density-bloom" data-location-count="24"/><circle cx="1472.00" cy="320.00" r="104.73" fill="#1e1b18" fill-opacity="0.0810" class="density-bloom" data-location-count="23"/><circle cx="704.00" cy="1344.00" r="103.05" fill="#1e1b18" fill-opacity="0.0790" class="density-bloom" data-location-count="22"/><circle cx="448.00" cy="1600.00" r="103.05" fill="#1e1b18" fill-opacity="0.0790" class="density-bloom" data-location-count="22"/><circle cx="192.00" cy="2368.00" r="103.05" fill="#1e1b18" fill-opacity="0.0790" class="density-bloom" data-location-count="22"/><circle cx="448.00" cy="832.00" r="101.32" fill="#1e1b18" fill-opacity="0.0770" class="density-bloom" data-location-count="21"/><circle cx="1344.00" cy="1088.00" r="101.32" fill="#1e1b18" fill-opacity="0.0770" class="density-bloom" data-location-count="21"/><circle cx="1728.00" cy="1344.00" r="101.32" fill="#1e1b18" fill-opacity="0.0770" class="density-bloom" data-location-count="21"/><circle cx="1728.00" cy="1984.00" r="101.32" fill="#1e1b18" fill-opacity="0.0770" class="density-bloom" data-location-count="21"/><circle cx="320.00" cy="1472.00" r="99.55" fill="#1e1b18" fill-opacity="0.0750" class="density-bloom" data-location-count="20"/><circle cx="3392.00" cy="2624.00" r="99.55" fill="#1e1b18" fill-opacity="0.0750" class="density-bloom" data-location-count="20"/><circle cx="1856.00" cy="704.00" r="97.74" fill="#1e1b18" fill-opacity="0.0730" class="density-bloom" data-location-count="19"/><circle cx="320.00" cy="1600.00" r="97.74" fill="#1e1b18" fill-opacity="0.0730" class="density-bloom" data-location-count="19"/><circle cx="1856.00" cy="1728.00" r="97.74" fill="#1e1b18" fill-opacity="0.0730" class="density-bloom" data-location-count="19"/><circle cx="3136.00" cy="1984.00" r="97.74" fill="#1e1b18" fill-opacity="0.0730" class="density-bloom" data-location-count="19"/><circle cx="3392.00" cy="2112.00" r="97.74" fill="#1e1b18" fill-opacity="0.0730" class="density-bloom" data-location-count="19"/><circle cx="3136.00" cy="1344.00" r="95.88" fill="#1e1b18" fill-opacity="0.0710" class="density-bloom" data-location-count="18"/><circle cx="1728.00" cy="2112.00" r="95.88" fill="#1e1b18" fill-opacity="0.0710" class="density-bloom" data-location-count="18"/><circle cx="2880.00" cy="3008.00" r="95.88" fill="#1e1b18" fill-opacity="0.0710" class="density-bloom" data-location-count="18"/><circle cx="1472.00" cy="960.00" r="93.97" fill="#1e1b18" fill-opacity="0.0690" class="density-bloom" data-location-count="17"/><circle cx="2112.00" cy="1344.00" r="93.97" fill="#1e1b18" fill-opacity="0.0690" class="density-bloom" data-location-count="17"/><circle cx="2752.00" cy="1472.00" r="93.97" fill="#1e1b18" fill-opacity="0.0690" class="density-bloom" data-location-count="17"/><circle cx="448.00" cy="1856.00" r="93.97" fill="#1e1b18" fill-opacity="0.0690" class="density-bloom" data-location-count="17"/><circle cx="1472.00" cy="448.00" r="92.00" fill="#1e1b18" fill-opacity="0.0670" class="density-bloom" data-location-count="16"/><circle cx="2624.00" cy="448.00" r="89.97" fill="#1e1b18" fill-opacity="0.0650" class="density-bloom" data-location-count="15"/><circle cx="2496.00" cy="1216.00" r="89.97" fill="#1e1b18" fill-opacity="0.0650" class="density-bloom" data-location-count="15"/><circle cx="1088.00" cy="1728.00" r="89.97" fill="#1e1b18" fill-opacity="0.0650" class="density-bloom" data-location-count="15"/><circle cx="1088.00" cy="2240.00" r="89.97" fill="#1e1b18" fill-opacity="0.0650" class="density-bloom" data-location-count="15"/><circle cx="704.00" cy="2368.00" r="89.97" fill="#1e1b18" fill-opacity="0.0650" class="density-bloom" data-location-count="15"/><circle cx="320.00" cy="704.00" r="87.87" fill="#1e1b18" fill-opacity="0.0630" class="density-bloom" data-location-count="14"/><circle cx="1472.00" cy="1088.00" r="87.87" fill="#1e1b18" fill-opacity="0.0630" class="density-bloom" data-location-count="14"/><circle cx="1088.00" cy="1600.00" r="87.87" fill="#1e1b18" fill-opacity="0.0630" class="density-bloom" data-location-count="14"/><circle cx="3136.00" cy="1728.00" r="87.87" fill="#1e1b18" fill-opacity="0.0630" class="density-bloom" data-location-count="14"/><circle cx="2368.00" cy="2240.00" r="87.87" fill="#1e1b18" fill-opacity="0.0630" class="density-bloom" data-location-count="14"/><circle cx="2496.00" cy="2240.00" r="87.87" fill="#1e1b18" fill-opacity="0.0630" class="density-bloom" data-location-count="14"/><circle cx="1600.00" cy="2496.00" r="87.87" fill="#1e1b18" fill-opacity="0.0630" class="density-bloom" data-location-count="14"/><circle cx="64.00" cy="2880.00" r="87.87" fill="#1e1b18" fill-opacity="0.0630" class="density-bloom" data-location-count="14"/><circle cx="2752.00" cy="320.00" r="85.69" fill="#1e1b18" fill-opacity="0.0610" class="density-bloom" data-location-count="13"/><circle cx="1728.00" cy="1088.00" r="85.69" fill="#1e1b18" fill-opacity="0.0610" class="density-bloom" data-location-count="13"/><circle cx="3520.00" cy="1984.00" r="85.69" fill="#1e1b18" fill-opacity="0.0610" class="density-bloom" data-location-count="13"/><circle cx="1600.00" cy="2368.00" r="85.69" fill="#1e1b18" fill-opacity="0.0610" class="density-bloom" data-location-count="13"/><circle cx="3520.00" cy="704.00" r="83.43" fill="#1e1b18" fill-opacity="0.0590" class="density-bloom" data-location-count="12"/><circle cx="1856.00" cy="960.00" r="83.43" fill="#1e1b18" fill-opacity="0.0590" class="density-bloom" data-location-count="12"/><circle cx="1216.00" cy="1088.00" r="83.43" fill="#1e1b18" fill-opacity="0.0590" class="density-bloom" data-location-count="12"/><circle cx="2880.00" cy="1216.00" r="83.43" fill="#1e1b18" fill-opacity="0.0590" class="density-bloom" data-location-count="12"/><circle cx="448.00" cy="1472.00" r="83.43" fill="#1e1b18" fill-opacity="0.0590" class="density-bloom" data-location-count="12"/><circle cx="832.00" cy="1472.00" r="83.43" fill="#1e1b18" fill-opacity="0.0590" class="density-bloom" data-location-count="12"/><circle cx="1216.00" cy="1728.00" r="83.43" fill="#1e1b18" fill-opacity="0.0590" class="density-bloom" data-location-count="12"/><circle cx="1856.00" cy="1984.00" r="83.43" fill="#1e1b18" fill-opacity="0.0590" class="density-bloom" data-location-count="12"/></g>
      <g id="regional-adjacency"><path d="M 3145.13 2842.53 L 3314.69 1927.31" class="composition-link" data-distance="0.22724445"/><path d="M 3145.13 2842.53 L 1847.18 3507.27" class="composition-link" data-distance="0.35602301"/><path d="M 3145.13 2842.53 L 1776.10 2249.79" class="composition-link" data-distance="0.36421911"/><path d="M 3314.69 1927.31 L 1776.10 2249.79" class="composition-link" data-distance="0.38379377"/><path d="M 3314.69 1927.31 L 2857.84 1282.58" class="composition-link" data-distance="0.19291477"/><path d="M 3314.69 1927.31 L 2592.27 430.67" class="composition-link" data-distance="0.40573113"/><path d="M 1847.18 3507.27 L 1776.10 2249.79" class="composition-link" data-distance="0.30749385"/><path d="M 1847.18 3507.27 L 537.95 2484.72" class="composition-link" data-distance="0.40557388"/><path d="M 1618.77 1306.44 L 1776.10 2249.79" class="composition-link" data-distance="0.23348919"/><path d="M 1618.77 1306.44 L 713.78 1577.17" class="composition-link" data-distance="0.23061814"/><path d="M 1618.77 1306.44 L 537.95 2484.72" class="composition-link" data-distance="0.39035805"/><path d="M 1618.77 1306.44 L 2857.84 1282.58" class="composition-link" data-distance="0.30256475"/><path d="M 1618.77 1306.44 L 2592.27 430.67" class="composition-link" data-distance="0.31969340"/><path d="M 1618.77 1306.44 L 504.22 729.98" class="composition-link" data-distance="0.30634794"/><path d="M 1776.10 2249.79 L 713.78 1577.17" class="composition-link" data-distance="0.30696874"/><path d="M 1776.10 2249.79 L 537.95 2484.72" class="composition-link" data-distance="0.30767499"/><path d="M 713.78 1577.17 L 537.95 2484.72" class="composition-link" data-distance="0.22568924"/><path d="M 713.78 1577.17 L 504.22 729.98" class="composition-link" data-distance="0.21306884"/><path d="M 537.95 2484.72 L 504.22 729.98" class="composition-link" data-distance="0.42848317"/><path d="M 2857.84 1282.58 L 2592.27 430.67" class="composition-link" data-distance="0.21785849"/></g>
      <g id="regional-masses"><g id="region-region-3144-omi" class="region-mass" data-region-id="region-3144-omi" data-location-count="444" data-anchor-count="7"><path d="M 2501.00 3267.12 Q 1916.61 2715.74 2139.81 2447.12 Q 2363.01 2178.49 2403.58 2149.10 Q 2444.14 2119.72 2523.62 2117.15 Q 2603.10 2114.59 2735.37 2135.91 Q 2867.65 2157.23 3219.05 2230.34 Q 3570.46 2303.46 3667.84 2406.97 Q 3765.23 2510.47 3891.92 2690.86 Q 4018.60 2871.24 4048.30 3080.50 Q 4078.00 3289.75 4034.21 3426.18 Q 3990.43 3562.61 3537.91 3690.56 Q 3085.39 3818.50 2501.00 3267.12 Z" fill="#b88f72" fill-opacity="0.55" stroke="#1e1b18" stroke-opacity="0.58" stroke-width="7"/><path d="M 2607.85 3196.69 Q 2120.39 2736.77 2306.57 2512.71 Q 2492.74 2288.64 2526.58 2264.13 Q 2560.42 2239.62 2626.71 2237.48 Q 2693.01 2235.34 2803.34 2253.12 Q 2913.67 2270.90 3206.79 2331.89 Q 3499.91 2392.88 3581.14 2479.22 Q 3662.37 2565.55 3768.04 2716.02 Q 3873.71 2866.48 3902.47 3041.02 Q 3931.23 3215.56 3890.72 3329.36 Q 3850.21 3443.17 3472.76 3549.89 Q 3095.30 3656.61 2607.85 3196.69 Z" fill="#efe5cd" fill-opacity="0.08"/></g><g id="region-region-3145-iga" class="region-mass" data-region-id="region-3145-iga" data-location-count="187" data-anchor-count="2"><path d="M 3016.52 1886.08 Q 2984.62 1803.24 2988.77 1780.63 Q 2992.92 1758.01 3010.03 1722.50 Q 3027.14 1686.98 3045.39 1656.74 Q 3063.64 1626.50 3064.80 1625.19 Q 3065.97 1623.88 3202.88 1556.89 Q 3339.79 1489.89 3412.30 1540.75 Q 3484.80 1591.60 3588.76 1799.62 Q 3692.73 2007.63 3678.30 2025.20 Q 3663.87 2042.76 3593.41 2094.89 Q 3522.95 2147.01 3521.07 2148.28 Q 3519.18 2149.55 3432.79 2156.69 Q 3346.40 2163.82 3282.00 2148.73 Q 3217.59 2133.63 3160.73 2095.91 Q 3103.88 2058.18 3076.14 2013.55 Q 3048.41 1968.92 3016.52 1886.08 Z" fill="#7f9b91" fill-opacity="0.55" stroke="#1e1b18" stroke-opacity="0.58" stroke-width="7"/><path d="M 3065.97 1892.92 Q 3039.37 1823.82 3042.83 1804.96 Q 3046.30 1786.09 3060.57 1756.47 Q 3074.84 1726.85 3090.06 1701.62 Q 3105.28 1676.39 3106.25 1675.31 Q 3107.23 1674.22 3221.43 1618.33 Q 3335.63 1562.45 3396.10 1604.87 Q 3456.58 1647.29 3543.30 1820.80 Q 3630.02 1994.31 3617.99 2008.96 Q 3605.95 2023.61 3547.18 2067.09 Q 3488.41 2110.57 3486.83 2111.63 Q 3485.26 2112.68 3413.20 2118.64 Q 3341.14 2124.59 3287.42 2112.00 Q 3233.69 2099.41 3186.27 2067.94 Q 3138.84 2036.47 3115.71 1999.25 Q 3092.58 1962.02 3065.97 1892.92 Z" fill="#efe5cd" fill-opacity="0.08"/></g><g id="region-region-3146-wakasa" class="region-mass" data-region-id="region-3146-wakasa" data-location-count="305" data-anchor-count="2"><path d="M 943.53 3302.47 Q 939.42 3288.27 941.68 3158.52 Q 943.94 3028.78 965.43 2913.66 Q 986.92 2798.54 1497.09 2790.54 Q 2007.27 2782.53 2007.89 2782.95 Q 2008.50 2783.37 2037.94 2804.26 Q 2067.37 2825.14 2335.60 3165.90 Q 2603.84 3506.67 2673.62 3704.31 Q 2743.40 3901.96 2452.27 3989.98 Q 2161.15 4078.00 1935.93 4078.00 Q 1710.72 4078.00 1698.97 4078.00 Q 1687.22 4078.00 1317.43 3697.34 Q 947.64 3316.68 943.53 3302.47 Z" fill="#9b8aa5" fill-opacity="0.55" stroke="#1e1b18" stroke-opacity="0.58" stroke-width="7"/><path d="M 1093.42 3336.44 Q 1090.00 3324.59 1091.88 3216.37 Q 1093.76 3108.15 1111.69 3012.13 Q 1129.62 2916.10 1555.16 2909.43 Q 1980.71 2902.75 1981.23 2903.10 Q 1981.74 2903.45 2006.29 2920.87 Q 2030.85 2938.29 2254.59 3222.53 Q 2478.32 3506.77 2536.53 3671.63 Q 2594.73 3836.49 2351.90 3923.69 Q 2109.07 4010.89 1921.21 4018.12 Q 1733.35 4025.35 1723.55 4021.00 Q 1713.76 4016.65 1405.30 3682.47 Q 1096.85 3348.29 1093.42 3336.44 Z" fill="#efe5cd" fill-opacity="0.08"/></g><g id="region-region-3147-izumi-settsu" class="region-mass" data-region-id="region-3147-izumi-settsu" data-location-count="494" data-anchor-count="4"><path d="M 982.44 3118.13 Q 153.24 2788.57 639.96 1809.48 Q 1126.68 830.39 1281.26 794.11 Q 1435.84 757.83 1658.09 816.33 Q 1880.35 874.83 1972.34 908.53 Q 2064.33 942.23 2863.23 1534.22 Q 3662.13 2126.22 3812.73 2838.72 Q 3963.33 3551.23 2887.48 3499.45 Q 1811.63 3447.68 982.44 3118.13 Z" fill="#b5a36f" fill-opacity="0.55" stroke="#1e1b18" stroke-opacity="0.58" stroke-width="7"/><path d="M 1087.99 2817.61 Q 396.34 2542.72 802.32 1726.04 Q 1208.30 909.35 1337.24 879.09 Q 1466.18 848.83 1651.57 897.63 Q 1836.96 946.43 1913.69 974.54 Q 1990.42 1002.65 2656.81 1496.44 Q 3323.19 1990.23 3448.80 2584.55 Q 3574.42 3178.87 2677.03 3135.68 Q 1779.64 3092.50 1087.99 2817.61 Z" fill="#efe5cd" fill-opacity="0.08"/></g><g id="region-region-3148-yamashiro" class="region-mass" data-region-id="region-3148-yamashiro" data-location-count="358" data-anchor-count="11"><path d="M 1274.64 2612.96 Q 1188.38 2480.87 1270.74 2226.89 Q 1353.09 1972.92 1477.63 1917.75 Q 1602.17 1862.58 1649.93 1843.58 Q 1697.68 1824.57 2189.87 1792.15 Q 2682.06 1759.73 2792.40 1836.42 Q 2902.74 1913.11 2912.79 1922.76 Q 2922.84 1932.41 2927.06 1939.81 Q 2931.28 1947.21 2409.94 2355.15 Q 1888.60 2763.09 1667.32 2795.21 Q 1446.04 2827.34 1403.47 2786.19 Q 1360.90 2745.04 1274.64 2612.96 Z" fill="#718d9e" fill-opacity="0.55" stroke="#1e1b18" stroke-opacity="0.58" stroke-width="7"/><path d="M 1357.82 2552.71 Q 1285.87 2442.54 1354.57 2230.69 Q 1423.26 2018.84 1527.14 1972.83 Q 1631.02 1926.81 1670.86 1910.96 Q 1710.69 1895.10 2121.24 1868.06 Q 2531.78 1841.02 2623.82 1904.99 Q 2715.85 1968.96 2724.24 1977.01 Q 2732.62 1985.06 2736.14 1991.23 Q 2739.66 1997.40 2304.80 2337.67 Q 1869.94 2677.94 1685.36 2704.74 Q 1500.79 2731.53 1465.28 2697.21 Q 1429.77 2662.89 1357.82 2552.71 Z" fill="#efe5cd" fill-opacity="0.08"/></g><g id="region-region-3149-harima" class="region-mass" data-region-id="region-3149-harima" data-location-count="373" data-anchor-count="4"><path d="M 118.14 1706.26 Q 84.98 1406.85 85.59 1394.23 Q 86.20 1381.61 122.95 1332.51 Q 159.70 1283.40 164.07 1280.97 Q 168.44 1278.54 463.98 1236.67 Q 759.51 1194.80 765.84 1195.43 Q 772.16 1196.06 831.68 1211.30 Q 891.19 1226.55 1122.10 1376.97 Q 1353.02 1527.40 1371.72 1571.56 Q 1390.42 1615.72 1350.69 1674.48 Q 1310.95 1733.24 1260.56 1789.21 Q 1210.16 1845.18 1023.32 1896.97 Q 836.48 1948.76 664.90 1978.78 Q 493.32 2008.80 322.31 2007.24 Q 151.30 2005.68 118.14 1706.26 Z" fill="#9a786c" fill-opacity="0.55" stroke="#1e1b18" stroke-opacity="0.58" stroke-width="7"/><path d="M 216.95 1684.85 Q 189.29 1435.10 189.80 1424.58 Q 190.30 1414.05 220.96 1373.09 Q 251.61 1332.13 255.25 1330.10 Q 258.90 1328.08 505.41 1293.15 Q 751.92 1258.22 757.20 1258.75 Q 762.48 1259.28 812.12 1271.99 Q 861.76 1284.71 1054.37 1410.18 Q 1246.99 1535.65 1262.59 1572.49 Q 1278.18 1609.33 1245.04 1658.34 Q 1211.90 1707.35 1169.86 1754.04 Q 1127.82 1800.72 971.97 1843.92 Q 816.13 1887.12 673.01 1912.16 Q 529.89 1937.20 387.25 1935.90 Q 244.60 1934.60 216.95 1684.85 Z" fill="#efe5cd" fill-opacity="0.08"/></g><g id="region-region-3150-tamba" class="region-mass" data-region-id="region-3150-tamba" data-location-count="317" data-anchor-count="2"><path d="M 18.00 3057.91 Q 18.00 3050.91 42.11 2721.82 Q 66.23 2392.72 82.57 2368.67 Q 98.91 2344.62 268.31 2176.36 Q 437.72 2008.11 660.77 1977.33 Q 883.83 1946.55 1031.58 2026.02 Q 1179.33 2105.48 1191.43 2201.49 Q 1203.54 2297.51 1059.55 2550.79 Q 915.57 2804.08 818.45 2897.38 Q 721.32 2990.68 369.66 3036.04 Q 18.00 3081.39 18.00 3073.15 Q 18.00 3064.90 18.00 3057.91 Z" fill="#81956f" fill-opacity="0.55" stroke="#1e1b18" stroke-opacity="0.58" stroke-width="7"/><path d="M 66.24 2962.83 Q 64.55 2956.99 104.51 2682.49 Q 144.47 2407.98 158.10 2387.92 Q 171.73 2367.86 313.04 2227.51 Q 454.34 2087.17 640.40 2061.49 Q 826.46 2035.82 949.70 2102.10 Q 1072.94 2168.39 1083.04 2248.47 Q 1093.13 2328.56 973.03 2539.83 Q 852.93 2751.11 771.92 2828.93 Q 690.91 2906.75 390.91 2944.59 Q 90.92 2982.42 79.42 2975.54 Q 67.92 2968.66 66.24 2962.83 Z" fill="#efe5cd" fill-opacity="0.08"/></g><g id="region-region-3151-yamato" class="region-mass" data-region-id="region-3151-yamato" data-location-count="298" data-anchor-count="7"><path d="M 2418.87 1535.27 Q 2409.83 1489.40 2443.51 1328.42 Q 2477.19 1167.43 2519.10 975.43 Q 2561.01 783.43 2565.67 780.95 Q 2570.33 778.47 2688.00 762.97 Q 2805.68 747.47 3123.85 724.78 Q 3442.03 702.09 3483.54 787.17 Q 3525.06 872.25 3525.54 874.65 Q 3526.01 877.06 3488.90 1034.91 Q 3451.80 1192.76 3383.34 1278.78 Q 3314.87 1364.81 3092.07 1541.09 Q 2869.26 1717.37 2850.16 1722.07 Q 2831.07 1726.78 2669.05 1703.26 Q 2507.04 1679.75 2467.47 1630.44 Q 2427.91 1581.13 2418.87 1535.27 Z" fill="#aa8f63" fill-opacity="0.55" stroke="#1e1b18" stroke-opacity="0.58" stroke-width="7"/><path d="M 2491.68 1493.35 Q 2484.14 1455.09 2512.24 1320.81 Q 2540.33 1186.53 2575.29 1026.38 Q 2610.24 866.22 2614.13 864.16 Q 2618.02 862.09 2716.17 849.16 Q 2814.33 836.23 3079.73 817.30 Q 3345.12 798.38 3379.76 869.35 Q 3414.39 940.31 3414.78 942.32 Q 3415.18 944.33 3384.23 1075.99 Q 3353.27 1207.66 3296.17 1279.41 Q 3239.06 1351.17 3053.22 1498.21 Q 2867.37 1645.25 2851.44 1649.17 Q 2835.51 1653.10 2700.37 1633.48 Q 2565.23 1613.87 2532.23 1572.74 Q 2499.22 1531.61 2491.68 1493.35 Z" fill="#efe5cd" fill-opacity="0.08"/></g><g id="region-region-3152-kii" class="region-mass" data-region-id="region-3152-kii" data-location-count="384" data-anchor-count="11"><path d="M 1344.69 521.84 Q 1318.82 379.44 1342.52 287.09 Q 1366.23 194.74 1374.50 191.73 Q 1382.77 188.71 1407.95 179.85 Q 1433.12 170.99 1712.42 124.91 Q 1991.72 78.84 2592.16 48.42 Q 3192.61 18.00 3461.61 51.58 Q 3730.61 85.15 3904.30 326.95 Q 4078.00 568.74 4078.00 664.26 Q 4078.00 759.79 3010.69 1805.06 Q 1943.39 2850.34 1656.97 1757.29 Q 1370.56 664.25 1344.69 521.84 Z" fill="#7f7d9e" fill-opacity="0.55" stroke="#1e1b18" stroke-opacity="0.58" stroke-width="7"/><path d="M 1551.64 506.72 Q 1530.06 387.94 1549.83 310.91 Q 1569.60 233.88 1576.50 231.36 Q 1583.40 228.84 1604.40 221.45 Q 1625.40 214.06 1858.37 175.63 Q 2091.34 137.20 2592.18 94.44 Q 3093.03 51.68 3317.40 97.07 Q 3541.78 142.47 3728.67 344.15 Q 3915.55 545.83 3875.14 625.51 Q 3834.74 705.19 2942.88 1577.08 Q 2051.02 2448.97 1812.12 1537.24 Q 1573.21 625.50 1551.64 506.72 Z" fill="#efe5cd" fill-opacity="0.08"/></g><g id="region-region-3304-awaji" class="region-mass" data-region-id="region-3304-awaji" data-location-count="265" data-anchor-count="0"><path d="M 212.03 626.62 Q 148.51 548.92 256.76 526.89 Q 365.00 504.86 461.23 529.83 Q 557.45 554.80 591.98 571.48 Q 626.51 588.17 648.96 603.49 Q 671.41 618.80 672.31 628.45 Q 673.22 638.09 670.94 800.81 Q 668.65 963.52 637.14 982.16 Q 605.62 1000.80 592.33 1002.58 Q 579.03 1004.36 518.77 946.73 Q 458.50 889.10 367.03 796.71 Q 275.55 704.31 212.03 626.62 Z" fill="#8d9a82" fill-opacity="0.55" stroke="#1e1b18" stroke-opacity="0.58" stroke-width="7"/><path d="M 260.50 643.76 Q 207.51 578.96 297.80 560.58 Q 388.09 542.20 468.36 563.03 Q 548.62 583.86 577.43 597.77 Q 606.23 611.69 624.95 624.47 Q 643.67 637.25 644.43 645.29 Q 645.19 653.33 643.28 789.06 Q 641.38 924.78 615.09 940.33 Q 588.80 955.88 577.71 957.36 Q 566.62 958.85 516.35 910.78 Q 466.09 862.71 389.79 785.64 Q 313.49 708.57 260.50 643.76 Z" fill="#efe5cd" fill-opacity="0.08"/></g></g>
      <g id="regional-contours"><path d="M 2607.85 3196.69 Q 2120.39 2736.77 2306.57 2512.71 Q 2492.74 2288.64 2526.58 2264.13 Q 2560.42 2239.62 2626.71 2237.48 Q 2693.01 2235.34 2803.34 2253.12 Q 2913.67 2270.90 3206.79 2331.89 Q 3499.91 2392.88 3581.14 2479.22 Q 3662.37 2565.55 3768.04 2716.02 Q 3873.71 2866.48 3902.47 3041.02 Q 3931.23 3215.56 3890.72 3329.36 Q 3850.21 3443.17 3472.76 3549.89 Q 3095.30 3656.61 2607.85 3196.69 Z" class="contour contour-middle"/><path d="M 2711.64 3128.27 Q 2318.35 2757.20 2468.56 2576.42 Q 2618.77 2395.64 2646.07 2375.86 Q 2673.37 2356.09 2726.86 2354.36 Q 2780.35 2352.63 2869.37 2366.98 Q 2958.39 2381.33 3194.88 2430.54 Q 3431.37 2479.75 3496.91 2549.40 Q 3562.45 2619.06 3647.71 2740.46 Q 3732.96 2861.86 3756.17 3002.68 Q 3779.37 3143.50 3746.69 3235.32 Q 3714.00 3327.13 3409.46 3413.24 Q 3104.92 3499.35 2711.64 3128.27 Z" class="contour contour-inner"/><path d="M 3065.97 1892.92 Q 3039.37 1823.82 3042.83 1804.96 Q 3046.30 1786.09 3060.57 1756.47 Q 3074.84 1726.85 3090.06 1701.62 Q 3105.28 1676.39 3106.25 1675.31 Q 3107.23 1674.22 3221.43 1618.33 Q 3335.63 1562.45 3396.10 1604.87 Q 3456.58 1647.29 3543.30 1820.80 Q 3630.02 1994.31 3617.99 2008.96 Q 3605.95 2023.61 3547.18 2067.09 Q 3488.41 2110.57 3486.83 2111.63 Q 3485.26 2112.68 3413.20 2118.64 Q 3341.14 2124.59 3287.42 2112.00 Q 3233.69 2099.41 3186.27 2067.94 Q 3138.84 2036.47 3115.71 1999.25 Q 3092.58 1962.02 3065.97 1892.92 Z" class="contour contour-middle"/><path d="M 3114.02 1899.57 Q 3092.56 1843.82 3095.35 1828.60 Q 3098.14 1813.38 3109.66 1789.47 Q 3121.17 1765.57 3133.45 1745.22 Q 3145.73 1724.87 3146.52 1723.99 Q 3147.30 1723.11 3239.44 1678.02 Q 3331.58 1632.93 3380.38 1667.16 Q 3429.17 1701.38 3499.14 1841.38 Q 3569.11 1981.37 3559.39 1993.19 Q 3549.68 2005.01 3502.27 2040.09 Q 3454.85 2075.17 3453.58 2076.02 Q 3452.31 2076.87 3394.17 2081.68 Q 3336.03 2086.48 3292.69 2076.32 Q 3249.34 2066.16 3211.08 2040.77 Q 3172.81 2015.39 3154.15 1985.35 Q 3135.48 1955.32 3114.02 1899.57 Z" class="contour contour-inner"/><path d="M 1093.42 3336.44 Q 1090.00 3324.59 1091.88 3216.37 Q 1093.76 3108.15 1111.69 3012.13 Q 1129.62 2916.10 1555.16 2909.43 Q 1980.71 2902.75 1981.23 2903.10 Q 1981.74 2903.45 2006.29 2920.87 Q 2030.85 2938.29 2254.59 3222.53 Q 2478.32 3506.77 2536.53 3671.63 Q 2594.73 3836.49 2351.90 3923.69 Q 2109.07 4010.89 1921.21 4018.12 Q 1733.35 4025.35 1723.55 4021.00 Q 1713.76 4016.65 1405.30 3682.47 Q 1096.85 3348.29 1093.42 3336.44 Z" class="contour contour-middle"/><path d="M 1239.04 3369.44 Q 1236.27 3359.88 1237.79 3272.57 Q 1239.31 3185.25 1253.77 3107.78 Q 1268.24 3030.31 1611.58 3024.92 Q 1954.92 3019.53 1955.33 3019.82 Q 1955.75 3020.10 1975.56 3034.15 Q 1995.37 3048.21 2175.88 3277.54 Q 2356.40 3506.87 2403.36 3639.88 Q 2450.32 3772.89 2254.40 3843.25 Q 2058.48 3913.60 1906.91 3919.44 Q 1755.34 3925.27 1747.44 3921.76 Q 1739.53 3918.25 1490.66 3648.62 Q 1241.80 3379.00 1239.04 3369.44 Z" class="contour contour-inner"/><path d="M 1087.99 2817.61 Q 396.34 2542.72 802.32 1726.04 Q 1208.30 909.35 1337.24 879.09 Q 1466.18 848.83 1651.57 897.63 Q 1836.96 946.43 1913.69 974.54 Q 1990.42 1002.65 2656.81 1496.44 Q 3323.19 1990.23 3448.80 2584.55 Q 3574.42 3178.87 2677.03 3135.68 Q 1779.64 3092.50 1087.99 2817.61 Z" class="contour contour-middle"/><path d="M 1190.53 2525.68 Q 632.49 2303.90 960.04 1644.98 Q 1287.60 986.06 1391.63 961.65 Q 1495.66 937.23 1645.23 976.60 Q 1794.81 1015.97 1856.72 1038.65 Q 1918.63 1061.34 2456.28 1459.74 Q 2993.93 1858.14 3095.27 2337.65 Q 3196.62 2817.15 2472.59 2782.31 Q 1748.56 2747.46 1190.53 2525.68 Z" class="contour contour-inner"/><path d="M 1357.82 2552.71 Q 1285.87 2442.54 1354.57 2230.69 Q 1423.26 2018.84 1527.14 1972.83 Q 1631.02 1926.81 1670.86 1910.96 Q 1710.69 1895.10 2121.24 1868.06 Q 2531.78 1841.02 2623.82 1904.99 Q 2715.85 1968.96 2724.24 1977.01 Q 2732.62 1985.06 2736.14 1991.23 Q 2739.66 1997.40 2304.80 2337.67 Q 1869.94 2677.94 1685.36 2704.74 Q 1500.79 2731.53 1465.28 2697.21 Q 1429.77 2662.89 1357.82 2552.71 Z" class="contour contour-middle"/><path d="M 1438.63 2494.19 Q 1380.57 2405.30 1436.00 2234.38 Q 1491.42 2063.46 1575.23 2026.33 Q 1659.05 1989.20 1691.19 1976.41 Q 1723.32 1963.62 2054.56 1941.80 Q 2385.80 1919.99 2460.05 1971.60 Q 2534.31 2023.21 2541.07 2029.70 Q 2547.84 2036.20 2550.68 2041.18 Q 2553.52 2046.16 2202.66 2320.69 Q 1851.81 2595.23 1702.89 2616.85 Q 1553.97 2638.47 1525.32 2610.78 Q 1496.68 2583.09 1438.63 2494.19 Z" class="contour contour-inner"/><path d="M 216.95 1684.85 Q 189.29 1435.10 189.80 1424.58 Q 190.30 1414.05 220.96 1373.09 Q 251.61 1332.13 255.25 1330.10 Q 258.90 1328.08 505.41 1293.15 Q 751.92 1258.22 757.20 1258.75 Q 762.48 1259.28 812.12 1271.99 Q 861.76 1284.71 1054.37 1410.18 Q 1246.99 1535.65 1262.59 1572.49 Q 1278.18 1609.33 1245.04 1658.34 Q 1211.90 1707.35 1169.86 1754.04 Q 1127.82 1800.72 971.97 1843.92 Q 816.13 1887.12 673.01 1912.16 Q 529.89 1937.20 387.25 1935.90 Q 244.60 1934.60 216.95 1684.85 Z" class="contour contour-middle"/><path d="M 312.93 1664.05 Q 290.61 1462.55 291.02 1454.06 Q 291.43 1445.57 316.16 1412.52 Q 340.89 1379.47 343.83 1377.83 Q 346.78 1376.20 545.67 1348.02 Q 744.56 1319.84 748.81 1320.26 Q 753.07 1320.69 793.12 1330.95 Q 833.17 1341.21 988.58 1442.44 Q 1143.98 1543.67 1156.57 1573.40 Q 1169.15 1603.12 1142.41 1642.66 Q 1115.67 1682.20 1081.75 1719.87 Q 1047.84 1757.53 922.10 1792.39 Q 796.36 1827.25 680.89 1847.45 Q 565.42 1867.65 450.33 1866.60 Q 335.24 1865.55 312.93 1664.05 Z" class="contour contour-inner"/><path d="M 66.24 2962.83 Q 64.55 2956.99 104.51 2682.49 Q 144.47 2407.98 158.10 2387.92 Q 171.73 2367.86 313.04 2227.51 Q 454.34 2087.17 640.40 2061.49 Q 826.46 2035.82 949.70 2102.10 Q 1072.94 2168.39 1083.04 2248.47 Q 1093.13 2328.56 973.03 2539.83 Q 852.93 2751.11 771.92 2828.93 Q 690.91 2906.75 390.91 2944.59 Q 90.92 2982.42 79.42 2975.54 Q 67.92 2968.66 66.24 2962.83 Z" class="contour contour-middle"/><path d="M 157.36 2870.47 Q 156.01 2865.76 188.25 2644.28 Q 220.49 2422.81 231.48 2406.62 Q 242.48 2390.43 356.49 2277.20 Q 470.49 2163.97 620.61 2143.25 Q 770.72 2122.54 870.15 2176.02 Q 969.59 2229.50 977.73 2294.11 Q 985.88 2358.73 888.98 2529.19 Q 792.08 2699.65 726.72 2762.44 Q 661.36 2825.22 419.32 2855.75 Q 177.27 2886.27 168.00 2880.72 Q 158.72 2875.17 157.36 2870.47 Z" class="contour contour-inner"/><path d="M 2491.68 1493.35 Q 2484.14 1455.09 2512.24 1320.81 Q 2540.33 1186.53 2575.29 1026.38 Q 2610.24 866.22 2614.13 864.16 Q 2618.02 862.09 2716.17 849.16 Q 2814.33 836.23 3079.73 817.30 Q 3345.12 798.38 3379.76 869.35 Q 3414.39 940.31 3414.78 942.32 Q 3415.18 944.33 3384.23 1075.99 Q 3353.27 1207.66 3296.17 1279.41 Q 3239.06 1351.17 3053.22 1498.21 Q 2867.37 1645.25 2851.44 1649.17 Q 2835.51 1653.10 2700.37 1633.48 Q 2565.23 1613.87 2532.23 1572.74 Q 2499.22 1531.61 2491.68 1493.35 Z" class="contour contour-middle"/><path d="M 2562.42 1452.63 Q 2556.34 1421.77 2579.00 1313.43 Q 2601.67 1205.09 2629.87 1075.87 Q 2658.08 946.66 2661.21 944.99 Q 2664.35 943.32 2743.54 932.89 Q 2822.74 922.46 3036.86 907.19 Q 3250.99 891.92 3278.93 949.17 Q 3306.87 1006.43 3307.19 1008.05 Q 3307.51 1009.67 3282.54 1115.90 Q 3257.57 1222.13 3211.49 1280.02 Q 3165.42 1337.92 3015.47 1456.55 Q 2865.53 1575.19 2852.68 1578.35 Q 2839.82 1581.52 2730.79 1565.70 Q 2621.76 1549.87 2595.13 1516.69 Q 2568.50 1483.50 2562.42 1452.63 Z" class="contour contour-inner"/><path d="M 1551.64 506.72 Q 1530.06 387.94 1549.83 310.91 Q 1569.60 233.88 1576.50 231.36 Q 1583.40 228.84 1604.40 221.45 Q 1625.40 214.06 1858.37 175.63 Q 2091.34 137.20 2592.18 94.44 Q 3093.03 51.68 3317.40 97.07 Q 3541.78 142.47 3728.67 344.15 Q 3915.55 545.83 3875.14 625.51 Q 3834.74 705.19 2942.88 1577.08 Q 2051.02 2448.97 1812.12 1537.24 Q 1573.21 625.50 1551.64 506.72 Z" class="contour contour-middle"/><path d="M 1752.67 492.03 Q 1735.26 396.19 1751.21 334.04 Q 1767.16 271.89 1772.73 269.86 Q 1778.30 267.83 1795.24 261.87 Q 1812.18 255.91 2000.15 224.90 Q 2188.11 193.89 2592.20 159.39 Q 2996.29 124.89 3177.32 161.52 Q 3358.36 198.14 3509.14 360.86 Q 3659.92 523.59 3627.32 587.87 Q 3594.71 652.16 2875.15 1355.62 Q 2155.58 2059.07 1962.83 1323.47 Q 1770.08 587.87 1752.67 492.03 Z" class="contour contour-inner"/><path d="M 260.50 643.76 Q 207.51 578.96 297.80 560.58 Q 388.09 542.20 468.36 563.03 Q 548.62 583.86 577.43 597.77 Q 606.23 611.69 624.95 624.47 Q 643.67 637.25 644.43 645.29 Q 645.19 653.33 643.28 789.06 Q 641.38 924.78 615.09 940.33 Q 588.80 955.88 577.71 957.36 Q 566.62 958.85 516.35 910.78 Q 466.09 862.71 389.79 785.64 Q 313.49 708.57 260.50 643.76 Z" class="contour contour-middle"/><path d="M 307.58 660.42 Q 264.83 608.13 337.68 593.30 Q 410.53 578.48 475.29 595.28 Q 540.05 612.09 563.28 623.31 Q 586.52 634.54 601.63 644.85 Q 616.73 655.16 617.34 661.65 Q 617.95 668.14 616.42 777.65 Q 614.88 887.15 593.67 899.69 Q 572.46 912.24 563.51 913.44 Q 554.57 914.63 514.01 875.85 Q 473.45 837.07 411.89 774.88 Q 350.33 712.70 307.58 660.42 Z" class="contour contour-inner"/></g>
    </g>
  </g>

  <g id="region-labels"><g class="region-label" transform="translate(3145.13 2842.53)"><circle r="48" fill="#efe5cd" fill-opacity="0.15"/><text y="-8" text-anchor="middle" class="region-name">OMI</text><text y="27" text-anchor="middle" class="region-count">444 LOC · 7 ANCHOR</text></g><g class="region-label" transform="translate(3314.69 1927.31)"><circle r="48" fill="#efe5cd" fill-opacity="0.15"/><text y="-8" text-anchor="middle" class="region-name">IGA</text><text y="27" text-anchor="middle" class="region-count">187 LOC · 2 ANCHOR</text></g><g class="region-label" transform="translate(1847.18 3507.27)"><circle r="48" fill="#efe5cd" fill-opacity="0.15"/><text y="-8" text-anchor="middle" class="region-name">WAKASA</text><text y="27" text-anchor="middle" class="region-count">305 LOC · 2 ANCHOR</text></g><g class="region-label" transform="translate(1618.77 1306.44)"><circle r="48" fill="#efe5cd" fill-opacity="0.15"/><text y="-8" text-anchor="middle" class="region-name">IZUMI SETTSU</text><text y="27" text-anchor="middle" class="region-count">494 LOC · 4 ANCHOR</text></g><g class="region-label" transform="translate(1776.10 2249.79)"><circle r="48" fill="#efe5cd" fill-opacity="0.15"/><text y="-8" text-anchor="middle" class="region-name">YAMASHIRO</text><text y="27" text-anchor="middle" class="region-count">358 LOC · 11 ANCHOR</text></g><g class="region-label" transform="translate(713.78 1577.17)"><circle r="48" fill="#efe5cd" fill-opacity="0.15"/><text y="-8" text-anchor="middle" class="region-name">HARIMA</text><text y="27" text-anchor="middle" class="region-count">373 LOC · 4 ANCHOR</text></g><g class="region-label" transform="translate(537.95 2484.72)"><circle r="48" fill="#efe5cd" fill-opacity="0.15"/><text y="-8" text-anchor="middle" class="region-name">TAMBA</text><text y="27" text-anchor="middle" class="region-count">317 LOC · 2 ANCHOR</text></g><g class="region-label" transform="translate(2857.84 1282.58)"><circle r="48" fill="#efe5cd" fill-opacity="0.15"/><text y="-8" text-anchor="middle" class="region-name">YAMATO</text><text y="27" text-anchor="middle" class="region-count">298 LOC · 7 ANCHOR</text></g><g class="region-label" transform="translate(2592.27 430.67)"><circle r="48" fill="#efe5cd" fill-opacity="0.15"/><text y="-8" text-anchor="middle" class="region-name">KII</text><text y="27" text-anchor="middle" class="region-count">384 LOC · 11 ANCHOR</text></g><g class="region-label" transform="translate(504.22 729.98)"><circle r="48" fill="#efe5cd" fill-opacity="0.15"/><text y="-8" text-anchor="middle" class="region-name">AWAJI</text><text y="27" text-anchor="middle" class="region-count">265 LOC · 0 ANCHOR</text></g></g>
  <g id="confirmed-anchor-guides"><g class="confirmed-anchor" transform="translate(1853.00 913.74)" data-location-id="location-mapgenie-434352"><circle r="13"/><circle r="4" class="anchor-core"/><title>Makinoodera Temple</title></g><g class="confirmed-anchor" transform="translate(3337.41 2031.49)" data-location-id="location-mapgenie-434366"><circle r="13"/><circle r="4" class="anchor-core"/><title>Aekuni Shrine</title></g><g class="confirmed-anchor" transform="translate(1692.72 1065.16)" data-location-id="location-mapgenie-434396"><circle r="13"/><circle r="4" class="anchor-core"/><title>Tennoji Temple</title></g><g class="confirmed-anchor" transform="translate(3374.77 2135.29)" data-location-id="location-mapgenie-434406"><circle r="13"/><circle r="4" class="anchor-core"/><title>Kasuga Shrine</title></g><g class="confirmed-anchor" transform="translate(1506.20 1016.57)" data-location-id="location-mapgenie-434532"><circle r="13"/><circle r="4" class="anchor-core"/><title>Sumiyoshi Shrine</title></g><g class="confirmed-anchor" transform="translate(1347.79 832.27)" data-location-id="location-mapgenie-434575"><circle r="13"/><circle r="4" class="anchor-core"/><title>Gansenji Temple</title></g><g class="confirmed-anchor" transform="translate(1724.71 2177.70)" data-location-id="location-mapgenie-434774"><circle r="13"/><circle r="4" class="anchor-core"/><title>Toji Temple</title></g><g class="confirmed-anchor" transform="translate(1732.24 2270.80)" data-location-id="location-mapgenie-434779"><circle r="13"/><circle r="4" class="anchor-core"/><title>Honnoji Temple</title></g><g class="confirmed-anchor" transform="translate(1673.83 2499.58)" data-location-id="location-mapgenie-434811"><circle r="13"/><circle r="4" class="anchor-core"/><title>Shokokuji Temple</title></g><g class="confirmed-anchor" transform="translate(1966.18 2276.11)" data-location-id="location-mapgenie-435009"><circle r="13"/><circle r="4" class="anchor-core"/><title>Kiyomizudera Temple</title></g><g class="confirmed-anchor" transform="translate(2379.20 2299.23)" data-location-id="location-mapgenie-435055"><circle r="13"/><circle r="4" class="anchor-core"/><title>Miidera</title></g><g class="confirmed-anchor" transform="translate(781.47 2183.59)" data-location-id="location-mapgenie-435078"><circle r="13"/><circle r="4" class="anchor-core"/><title>Annonji Temple</title></g><g class="confirmed-anchor" transform="translate(2800.32 1366.68)" data-location-id="location-mapgenie-435742"><circle r="13"/><circle r="4" class="anchor-core"/><title>Omiwa Shrine</title></g><g class="confirmed-anchor" transform="translate(3294.28 990.47)" data-location-id="location-mapgenie-435783"><circle r="13"/><circle r="4" class="anchor-core"/><title>Niukawakami Shrine</title></g><g class="confirmed-anchor" transform="translate(3358.27 980.94)" data-location-id="location-mapgenie-435786"><circle r="13"/><circle r="4" class="anchor-core"/><title>Nyoirinji Temple</title></g><g class="confirmed-anchor" transform="translate(3460.65 2872.93)" data-location-id="location-mapgenie-435820"><circle r="13"/><circle r="4" class="anchor-core"/><title>Isakiji Temple</title></g><g class="confirmed-anchor" transform="translate(3716.70 3395.48)" data-location-id="location-mapgenie-435872"><circle r="13"/><circle r="4" class="anchor-core"/><title>Nagahama Hachimangu Shrine</title></g><g class="confirmed-anchor" transform="translate(3947.49 3494.10)" data-location-id="location-mapgenie-435886"><circle r="13"/><circle r="4" class="anchor-core"/><title>Daikichiji Temple</title></g><g class="confirmed-anchor" transform="translate(3314.10 3384.16)" data-location-id="location-mapgenie-435908"><circle r="13"/><circle r="4" class="anchor-core"/><title>Hogonji Temple</title></g><g class="confirmed-anchor" transform="translate(1487.40 2529.46)" data-location-id="location-mapgenie-436340"><circle r="13"/><circle r="4" class="anchor-core"/><title>Kinkakuji Temple</title></g><g class="confirmed-anchor" transform="translate(1459.88 2772.63)" data-location-id="location-mapgenie-436354"><circle r="13"/><circle r="4" class="anchor-core"/><title>Kuramadera Temple</title></g><g class="confirmed-anchor" transform="translate(1444.51 358.32)" data-location-id="location-mapgenie-436387"><circle r="13"/><circle r="4" class="anchor-core"/><title>Saika Temple Grounds</title></g><g class="confirmed-anchor" transform="translate(2103.81 517.16)" data-location-id="location-mapgenie-436436"><circle r="13"/><circle r="4" class="anchor-core"/><title>Jison-in</title></g><g class="confirmed-anchor" transform="translate(2547.32 492.25)" data-location-id="location-mapgenie-436442"><circle r="13"/><circle r="4" class="anchor-core"/><title>Koyasan Danjo Garan</title></g><g class="confirmed-anchor" transform="translate(2646.18 528.38)" data-location-id="location-mapgenie-436455"><circle r="13"/><circle r="4" class="anchor-core"/><title>Kongobuji Temple</title></g><g class="confirmed-anchor" transform="translate(3908.33 466.19)" data-location-id="location-mapgenie-436509"><circle r="13"/><circle r="4" class="anchor-core"/><title>Kamikura Shrine</title></g><g class="confirmed-anchor" transform="translate(3931.14 563.57)" data-location-id="location-mapgenie-436521"><circle r="13"/><circle r="4" class="anchor-core"/><title>Kumano Hayatama Taisha</title></g><g class="confirmed-anchor" transform="translate(3529.45 280.54)" data-location-id="location-mapgenie-436647"><circle r="13"/><circle r="4" class="anchor-core"/><title>Kumano Nachi Taisha</title></g><g class="confirmed-anchor" transform="translate(3378.75 2611.97)" data-location-id="location-mapgenie-436705"><circle r="13"/><circle r="4" class="anchor-core"/><title>Sokenji Temple</title></g><g class="confirmed-anchor" transform="translate(2201.19 2596.32)" data-location-id="location-mapgenie-436781"><circle r="13"/><circle r="4" class="anchor-core"/><title>Enryakuji Temple</title></g><g class="confirmed-anchor" transform="translate(1929.01 3898.47)" data-location-id="location-mapgenie-437090"><circle r="13"/><circle r="4" class="anchor-core"/><title>Saifukuji Temple</title></g><g class="confirmed-anchor" transform="translate(1834.75 698.29)" data-location-id="location-mapgenie-437327"><circle r="13"/><circle r="4" class="anchor-core"/><title>Negoroji Temple Grounds</title></g><g class="confirmed-anchor" transform="translate(1781.50 186.34)" data-location-id="location-mapgenie-437468"><circle r="13"/><circle r="4" class="anchor-core"/><title>Dojoji Temple</title></g><g class="confirmed-anchor" transform="translate(2745.77 287.11)" data-location-id="location-mapgenie-437477"><circle r="13"/><circle r="4" class="anchor-core"/><title>Takahara Kumano Shrine</title></g><g class="confirmed-anchor" transform="translate(3174.26 512.38)" data-location-id="location-mapgenie-437483"><circle r="13"/><circle r="4" class="anchor-core"/><title>Kumano Hongu Taisha</title></g><g class="confirmed-anchor" transform="translate(1290.00 1544.38)" data-location-id="location-mapgenie-437563"><circle r="13"/><circle r="4" class="anchor-core"/><title>Tanjosan Myoyoji Temple</title></g><g class="confirmed-anchor" transform="translate(1172.06 1814.53)" data-location-id="location-mapgenie-437593"><circle r="13"/><circle r="4" class="anchor-core"/><title>Kyokaiji Temple</title></g><g class="confirmed-anchor" transform="translate(339.70 1779.81)" data-location-id="location-mapgenie-437649"><circle r="13"/><circle r="4" class="anchor-core"/><title>Mitsunodo Hall</title></g><g class="confirmed-anchor" transform="translate(132.81 1393.61)" data-location-id="location-mapgenie-437692"><circle r="13"/><circle r="4" class="anchor-core"/><title>Aga Hontokuji Temple</title></g><g class="confirmed-anchor" transform="translate(1836.35 2130.82)" data-location-id="location-mapgenie-437825"><circle r="13"/><circle r="4" class="anchor-core"/><title>Tofukuji Temple</title></g><g class="confirmed-anchor" transform="translate(1939.46 1999.21)" data-location-id="location-mapgenie-437835"><circle r="13"/><circle r="4" class="anchor-core"/><title>Iwashimizu Hachiman Shrine</title></g><g class="confirmed-anchor" transform="translate(2146.50 2068.17)" data-location-id="location-mapgenie-437840"><circle r="13"/><circle r="4" class="anchor-core"/><title>Byodoin Temple</title></g><g class="confirmed-anchor" transform="translate(1486.78 2277.02)" data-location-id="location-mapgenie-437845"><circle r="13"/><circle r="4" class="anchor-core"/><title>Tenryuji Temple</title></g><g class="confirmed-anchor" transform="translate(2732.28 1500.45)" data-location-id="location-mapgenie-437869"><circle r="13"/><circle r="4" class="anchor-core"/><title>Kofukuji Temple</title></g><g class="confirmed-anchor" transform="translate(2878.40 1557.46)" data-location-id="location-mapgenie-437898"><circle r="13"/><circle r="4" class="anchor-core"/><title>Kasugataisha Shrine</title></g><g class="confirmed-anchor" transform="translate(2774.43 1628.13)" data-location-id="location-mapgenie-437901"><circle r="13"/><circle r="4" class="anchor-core"/><title>Todaiji Temple</title></g><g class="confirmed-anchor" transform="translate(1884.92 2504.98)" data-location-id="location-mapgenie-437937"><circle r="13"/><circle r="4" class="anchor-core"/><title>Ginkakuji Temple</title></g><g class="confirmed-anchor" transform="translate(76.71 2743.24)" data-location-id="location-mapgenie-438261"><circle r="13"/><circle r="4" class="anchor-core"/><title>Sukyoji Temple</title></g><g class="confirmed-anchor" transform="translate(1738.36 2917.61)" data-location-id="location-mapgenie-438274"><circle r="13"/><circle r="4" class="anchor-core"/><title>Gokurakuji Temple</title></g><g class="confirmed-anchor" transform="translate(2832.46 1703.62)" data-location-id="location-mapgenie-438333"><circle r="13"/><circle r="4" class="anchor-core"/><title>Hinode Shrine</title></g></g>
  <g id="unassigned-location-guides"><g class="unassigned-guide" transform="translate(2119.00 1266.18)" data-location-id="location-mapgenie-479929"><path d="M 0 -18 L 18 0 L 0 18 L -18 0 Z"/><title>News from Hattori Hanzo — pending region classification</title></g><g class="unassigned-guide" transform="translate(1024.00 1289.25)" data-location-id="location-mapgenie-479932"><path d="M 0 -18 L 18 0 L 0 18 L -18 0 Z"/><title>The Puppet Show — pending region classification</title></g><g class="unassigned-guide" transform="translate(2122.71 1274.95)" data-location-id="location-mapgenie-481173"><path d="M 0 -18 L 18 0 L 0 18 L -18 0 Z"/><title>Painting Memories — pending region classification</title></g><g class="unassigned-guide" transform="translate(1418.29 256.97)" data-location-id="location-mapgenie-605004"><path d="M 0 -18 L 18 0 L 0 18 L -18 0 Z"/><title>Black Tides — pending region classification</title></g><g class="unassigned-guide" transform="translate(3195.39 79.88)" data-location-id="location-mapgenie-605006"><path d="M 0 -18 L 18 0 L 0 18 L -18 0 Z"/><title>Horizon — pending region classification</title></g></g>

  <g id="legend" transform="translate(180 3750)">
    <rect width="1300" height="190" rx="28" fill="#070b0d" fill-opacity="0.78" stroke="#b18a4b" stroke-opacity="0.58" stroke-width="3"/>
    <circle cx="62" cy="62" r="13" fill="#9b352f" fill-opacity="0.35" stroke="#9b352f" stroke-width="5"/>
    <text x="98" y="70" class="legend">CONFIRMED ALIGNMENT ANCHOR · 50</text>
    <path d="M 46 128 L 62 112 L 78 128 L 62 144 Z" fill="none" stroke="#b18a4b" stroke-width="5" stroke-dasharray="6 5"/>
    <text x="98" y="137" class="legend">UNASSIGNED LOCATION GUIDE · 5</text>
    <text x="760" y="70" class="legend">10 ORIGINAL REGION MASSES</text>
    <text x="760" y="137" class="legend">CONSTRUCTION DRAFT · NOT FINAL TERRAIN</text>
  </g>
</svg>
